<?xml version="1.0" encoding="utf-8"?>
<!-- Generator: Adobe Illustrator 26.0.1, SVG Export Plug-In . SVG Version: 6.00 Build 0)  -->
<svg version="1.1" id="Layer_1" xmlns="http://www.w3.org/2000/svg" xmlns:xlink="http://www.w3.org/1999/xlink" x="0px" y="0px"
	 viewBox="0 0 192 197" style="enable-background:new 0 0 192 197;" xml:space="preserve">
<style type="text/css">
	.st0{fill:#D70664;}
</style>
<g>
	<path class="st0" d="M159.05,148.82c3.51-8.51,4.28-18.89,2.12-30.41c-1.01-5.36-2.62-10.78-4.78-16.18
		c2.16-5.4,3.77-10.82,4.78-16.18c2.93-15.59,0.48-29.06-6.85-38.68c1.2-1.51,1.92-3.41,1.92-5.49c0-4.87-3.95-8.82-8.82-8.82
		c-2.84,0-5.37,1.35-6.98,3.44c-9.48-4.16-21.23-4.58-34.17-1.03c-3.59,0.98-7.18,2.26-10.75,3.79c-3.57-1.53-7.17-2.81-10.75-3.79
		c-17.87-4.9-33.48-2.28-43.96,7.38c-10.48,9.65-14.37,25-10.95,43.2c1.01,5.36,2.62,10.78,4.78,16.17
		c-2.16,5.4-3.78,10.83-4.78,16.19c-3.42,18.21,0.47,33.55,10.95,43.2c7.03,6.48,16.37,9.79,27.14,9.79c5.29,0,10.93-0.8,16.81-2.41
		c3.59-0.98,7.18-2.26,10.75-3.79c3.57,1.53,7.17,2.81,10.75,3.79c5.88,1.61,11.52,2.41,16.81,2.41c6.94,0,13.27-1.38,18.78-4.08
		c2.22,1.94,5.12,3.13,8.31,3.13c6.98,0,12.64-5.66,12.64-12.64C162.81,154.29,161.37,151.11,159.05,148.82z M122.91,40.99
		c5.96,0,11.45,1.2,16.15,3.68c1.1,3.28,4.06,5.69,7.62,5.99c6.93,7.82,9.29,19.73,6.63,33.9c-0.45,2.41-1.06,4.83-1.77,7.27
		C146.9,83.18,140.9,74.77,133.75,67l0,0c-8.66-9.4-18.42-17.19-28.56-22.94C111.35,42.05,117.34,40.99,122.91,40.99z M59.4,123.72
		c-1,0-1.97,0.17-2.87,0.46c-5.46-7.05-9.93-14.48-13.24-21.99c4.49-10.1,11.17-20.34,19.87-29.78
		c9.98-10.83,21.23-19.11,32.35-24.45c11.13,5.34,22.38,13.62,32.35,24.45c8.69,9.44,15.37,19.68,19.86,29.78
		c-4.57,10.35-11.32,20.57-19.86,29.83c-9.98,10.83-21.23,19.1-32.35,24.44c-9.45-4.53-18.99-11.19-27.76-19.73
		c0.54-1.17,0.84-2.46,0.84-3.83C68.6,127.84,64.48,123.72,59.4,123.72z M37.72,84.57c-2.89-15.4,0.13-28.13,8.51-35.84
		c5.69-5.24,13.29-7.73,21.89-7.73c5.57,0,11.56,1.05,17.72,3.07C75.69,49.81,65.94,57.6,57.28,67l0,0
		c-7.16,7.77-13.16,16.19-17.79,24.85C38.76,89.41,38.17,86.98,37.72,84.57z M46.22,155.73c-10.18-9.38-12.06-25.57-6.77-43.22
		c3.16,5.91,6.95,11.72,11.32,17.28c-0.35,0.98-0.56,2.03-0.56,3.13c0,5.08,4.12,9.19,9.19,9.19c0.74,0,1.45-0.1,2.14-0.26
		c7.55,7.45,15.78,13.72,24.29,18.54C70.17,165.52,55.6,164.37,46.22,155.73z M151.85,145.3c-0.55-0.07-1.11-0.12-1.68-0.12
		c-6.98,0-12.64,5.66-12.64,12.64c0,0.88,0.09,1.75,0.27,2.58c-8.93,4.17-20.43,3.98-32.6-0.01c10.14-5.75,19.89-13.53,28.55-22.93
		c7.17-7.79,13.19-16.23,17.83-24.91C155.23,124.75,155.44,136.26,151.85,145.3z"/>
	<path class="st0" d="M82.19,124.44h24.51c6.2,0,11.25-5.04,11.25-11.25v-26.3c0-6.2-5.04-11.24-11.25-11.24H82.19
		c-6.2,0-11.24,5.04-11.24,11.24v26.3C70.95,119.39,75.99,124.44,82.19,124.44z M75.95,86.89c0-3.44,2.8-6.24,6.24-6.24h24.51
		c3.44,0,6.25,2.8,6.25,6.24v26.3c0,3.44-2.8,6.25-6.25,6.25H82.19c-3.44,0-6.24-2.8-6.24-6.25V86.89z"/>
	<path class="st0" d="M63.31,96h-5.38c-1.37,0-2.48,1.11-2.48,2.48v0.43c0,1.37,1.11,2.48,2.48,2.48h5.38
		c1.37,0,2.48-1.11,2.48-2.48v-0.43C65.79,97.11,64.68,96,63.31,96z"/>
	<path class="st0" d="M63.31,111.4h-5.38c-1.37,0-2.48,1.11-2.48,2.48v0.43c0,1.37,1.11,2.48,2.48,2.48h5.38
		c1.37,0,2.48-1.11,2.48-2.48v-0.43C65.79,112.51,64.68,111.4,63.31,111.4z"/>
	<path class="st0" d="M63.31,80.43h-5.38c-1.37,0-2.48,1.11-2.48,2.48v0.43c0,1.37,1.11,2.48,2.48,2.48h5.38
		c1.37,0,2.48-1.11,2.48-2.48V82.9C65.79,81.54,64.68,80.43,63.31,80.43z"/>
	<path class="st0" d="M123.54,101.38h5.38c1.37,0,2.48-1.11,2.48-2.48v-0.43c0-1.37-1.11-2.48-2.48-2.48h-5.38
		c-1.37,0-2.48,1.11-2.48,2.48v0.43C121.06,100.27,122.17,101.38,123.54,101.38z"/>
	<path class="st0" d="M123.54,116.79h5.38c1.37,0,2.48-1.11,2.48-2.48v-0.43c0-1.37-1.11-2.48-2.48-2.48h-5.38
		c-1.37,0-2.48,1.11-2.48,2.48v0.43C121.06,115.68,122.17,116.79,123.54,116.79z"/>
	<path class="st0" d="M123.54,85.81h5.38c1.37,0,2.48-1.11,2.48-2.48V82.9c0-1.37-1.11-2.48-2.48-2.48h-5.38
		c-1.37,0-2.48,1.11-2.48,2.48v0.43C121.06,84.7,122.17,85.81,123.54,85.81z"/>
	<path class="st0" d="M94,72.76h0.43c1.37,0,2.48-1.11,2.48-2.48v-5.38c0-1.37-1.11-2.48-2.48-2.48H94c-1.37,0-2.48,1.11-2.48,2.48
		v5.38C91.52,71.65,92.63,72.76,94,72.76z"/>
	<path class="st0" d="M109.4,72.76h0.43c1.37,0,2.48-1.11,2.48-2.48v-5.38c0-1.37-1.11-2.48-2.48-2.48h-0.43
		c-1.37,0-2.48,1.11-2.48,2.48v5.38C106.93,71.65,108.04,72.76,109.4,72.76z"/>
	<path class="st0" d="M78.43,72.76h0.43c1.37,0,2.48-1.11,2.48-2.48v-5.38c0-1.37-1.11-2.48-2.48-2.48h-0.43
		c-1.37,0-2.48,1.11-2.48,2.48v5.38C75.95,71.65,77.06,72.76,78.43,72.76z"/>
	<path class="st0" d="M94.43,126.76H94c-1.37,0-2.48,1.11-2.48,2.48v5.38c0,1.37,1.11,2.48,2.48,2.48h0.43
		c1.37,0,2.48-1.11,2.48-2.48v-5.38C96.9,127.87,95.79,126.76,94.43,126.76z"/>
	<path class="st0" d="M109.83,126.76h-0.43c-1.37,0-2.48,1.11-2.48,2.48v5.38c0,1.37,1.11,2.48,2.48,2.48h0.43
		c1.37,0,2.48-1.11,2.48-2.48v-5.38C112.31,127.87,111.2,126.76,109.83,126.76z"/>
	<path class="st0" d="M78.85,126.76h-0.43c-1.37,0-2.48,1.11-2.48,2.48v5.38c0,1.37,1.11,2.48,2.48,2.48h0.43
		c1.37,0,2.48-1.11,2.48-2.48v-5.38C81.33,127.87,80.22,126.76,78.85,126.76z"/>
	<path class="st0" d="M84.82,108.56c0.23-0.18,0.39-0.38,0.48-0.61l1.04-3.07h6.69l1.04,3.07c0.11,0.26,0.28,0.47,0.5,0.63
		s0.5,0.25,0.86,0.25h3.16l-6.81-17.59h-4.18l-6.81,17.59h3.19C84.31,108.83,84.59,108.74,84.82,108.56z M88.89,97.32
		c0.12-0.31,0.25-0.67,0.39-1.09c0.14-0.42,0.27-0.87,0.39-1.36c0.14,0.48,0.27,0.93,0.41,1.35c0.14,0.41,0.27,0.77,0.39,1.08
		l1.63,4.82h-4.82L88.89,97.32z"/>
	<rect x="99.96" y="91.25" class="st0" width="4.1" height="17.59"/>
</g>
</svg>
