<?xml version="1.0" encoding="utf-8"?>
<!-- Generator: Adobe Illustrator 26.0.1, SVG Export Plug-In . SVG Version: 6.00 Build 0)  -->
<svg version="1.1" id="Layer_1" xmlns="http://www.w3.org/2000/svg" xmlns:xlink="http://www.w3.org/1999/xlink" x="0px" y="0px"
	 viewBox="0 0 256 256" style="enable-background:new 0 0 256 256;" xml:space="preserve">
<style type="text/css">
	.st0{fill:#D70664;}
</style>
<g>
	<path class="st0" d="M186.93,182.13c-3.66-0.04-7.32-0.02-10.97-0.01c-23.27,0.08-46.54,0.16-69.81,0.28
		c-4.04,0.02-7.88-0.4-9.24-4.97c-2.43-8.17-6.8-7.01-12.81-6.99c-2.25,0.01-2.82,0.99-2,3.14c1.72,4.49,3.38,9,4.89,13.57
		c2.13,6.43,4,7.94,10.8,7.96c14.63,0.04,29.26,0.01,43.89,0.01c15.13,0,30.25,0.02,45.38-0.01c4.13-0.01,8.35-3.23,8.38-6.23
		C195.47,185.67,191.1,182.17,186.93,182.13z"/>
	<path class="st0" d="M105.64,200.41c-7.82-0.06-14.48,6.42-14.46,14.08c0.03,7.77,6.44,13.98,14.48,14.01
		c7.59,0.03,14.04-6.24,14.18-13.8C119.98,206.94,113.56,200.47,105.64,200.41z"/>
	<path class="st0" d="M180.43,200.4c-8.17,0.01-14.11,6.04-14.03,14.25c0.07,8.19,6.14,14.04,14.36,13.86
		c8-0.18,13.4-5.92,13.35-14.19C194.07,206.23,188.32,200.39,180.43,200.4z"/>
	<path class="st0" d="M229.12,68.41c-8.66,0.13-17.31,0.05-25.97,0.05c-9.62,0-9.51,0.01-9.96,9.45c-0.12,2.54,0.64,3.2,2.98,3.16
		c5.16-0.1,10.33,0.1,15.48-0.08c3.19-0.11,4.49,0.39,3.39,4.09c-4.39,14.81-8.59,29.68-12.69,44.57c-1.44,5.23-4.88,7.2-9.94,7.2
		c-33.46,0-66.93-0.02-100.39,0.02c-5.34,0.01-8.88-2.29-10.44-7.45c-4.8-15.89-9.6-31.78-14.66-48.53c6.46,0,12.27,0,18.08,0
		c6.31,0,6.31,0,5.85-6.14c-0.06-0.83-0.25-1.66-0.24-2.48c0.05-3.21-1.46-4.28-4.64-4.12c-4.82,0.25-9.65,0.07-14.48,0.06
		c-8.21-0.02-8.21-0.02-10.8-7.87c-1.13-3.41-2.45-7.07-6.6-7.23c-8.3-0.31-16.63-0.21-24.94,0.02c-3.53,0.1-5.27,2.45-5.22,6.03
		c0.05,3.55,1.75,5.7,5.34,5.96c3.98,0.28,7.98,0.55,11.96,0.46c7.18-0.17,7.69,0.06,9.77,6.94c8.4,27.83,16.78,55.66,25.19,83.48
		c2.06,6.82,4.35,8.55,11.51,8.57c13.65,0.04,27.3,0.1,40.96-0.01c21.13-0.17,42.27,0.49,63.4-0.37
		c9.45-0.39,15.22-5.42,17.73-14.12c7.52-26.01,14.77-52.1,22.26-78.12C232.97,68.69,231.87,68.37,229.12,68.41z M195.13,150.69
		c-1.88,1.25-4.07,1.3-6.26,1.3c-31.81,0.01-63.62-0.06-95.43,0.12c-6.22,0.03-6.71-4.16-7.79-9.12c8.9,0,17.38,0,25.85,0
		c27.31,0,54.63-0.03,81.94,0.07c1.56,0.01,4.19-1.28,4.6,1.12C198.47,146.59,197.43,149.16,195.13,150.69z"/>
	<path class="st0" d="M141.58,117.55c24.9,0.16,45.34-19.88,45.54-44.66c0.2-24.7-19.64-44.78-44.43-44.98
		c-25-0.2-45.23,19.31-45.51,43.89C96.89,96.71,116.97,117.39,141.58,117.55z M125.2,82.28c2.28-2.2,8.83-0.89,10.24,2.09
		c1.98,4.18,5.49,3.91,8.86,3.94c3.97,0.04,5.37-2.97,3.33-6.45c-1.78-3.03-4.47-4.77-7.72-5.91c-2.65-0.93-5.3-1.95-7.77-3.26
		c-4.52-2.38-6.87-6.32-6.6-11.4c0.29-5.4,2.91-9.49,8.13-11.49c2.96-1.13,5.93-1.8,5.55-6.18c-0.19-2.2,2.08-2.64,4.04-2.72
		c2.26-0.09,4.49,0.69,4.33,3.01c-0.28,4.06,2.43,4.91,5.14,6.17c2.47,1.14,4.59,2.84,5.76,5.31c1.09,2.32,2.82,4.99,0.67,7.37
		c-1.83,2.03-8.14,0.8-10.03-1.61c-0.61-0.77-0.79-1.95-1.5-2.55c-2.63-2.22-5.68-3.03-8.61-0.82c-2.93,2.21-1.19,4.77,0.19,7.03
		c1.18,1.94,3.14,2.81,5.26,3.5c3.47,1.11,6.9,2.37,9.97,4.44c8.27,5.58,8.03,16.9-0.57,21.76c-3.11,1.76-6.72,2.61-6.62,7.46
		c0.05,2.34-2.59,1.25-3.64,1.59c-2.45,0.05-4.77,0.27-4.51-2.77c0.28-3.2-1.84-3.81-4.16-4.5c-3.57-1.06-7.01-2.57-8.88-5.95
		C124.7,87.89,122.55,84.84,125.2,82.28z"/>
</g>
</svg>
