<?xml version="1.0" encoding="utf-8"?>
<!-- Generator: Adobe Illustrator 26.0.1, SVG Export Plug-In . SVG Version: 6.00 Build 0)  -->
<svg version="1.1" id="Layer_1" xmlns="http://www.w3.org/2000/svg" xmlns:xlink="http://www.w3.org/1999/xlink" x="0px" y="0px"
	 viewBox="0 0 256 256" style="enable-background:new 0 0 256 256;" xml:space="preserve">
<style type="text/css">
	.st0{fill:#D70664;}
</style>
<g>
	<path class="st0" d="M141.27,126.98c-3.59-0.58-5.55-3.4-7.55-5.86c-5.73,3.53-6.85,8.73-6.68,15.01
		c0.41,14.79,0.18,29.6,0.44,44.4c0.06,3.4-0.78,4.63-4.37,4.51c-7.81-0.27-15.64-0.08-23.46-0.08c-9.24,0-9.19,0-8.52,9.21
		c0.13,1.83,0.26,2.41,2.5,2.19c4.3-0.43,7.4,2.48,7.36,6.16c-0.04,3.69-3.04,6.52-7.46,6.06c-4.31-0.44-2.19,2.81-2.85,4.28
		c-1.12,2.46,0.82,2.67,2.63,2.67c12.81-0.01,25.63,0.15,38.43-0.09c6.58-0.12,11.09-4.5,11.14-11.08
		c0.19-24.79,0.1-49.58,0.1-74.37C142.98,128.7,143.23,127.3,141.27,126.98z"/>
	<path class="st0" d="M150.56,80.63c-9.58,2.69-19.15,5.41-28.66,8.32c-2.38,0.73-6.27,0.27-6.6,3.32
		c-0.32,2.98,3.42,3.74,5.68,4.73c4.46,1.94,4.17,3.49,0.8,6.56c-7.36,6.7-14.37,13.8-21.47,20.8c-3.79,3.74-4.12,7.89-1.05,11
		c2.78,2.81,7.41,2.36,11.07-1.1c1.09-1.03,2.14-2.09,3.18-3.17c7-7.29,13.99-14.58,21.44-22.35c2.21,3.8,3.64,6.38,5.2,8.9
		c0.68,1.1,1.47,2.46,3.05,2.1c1.25-0.28,1.53-1.57,1.87-2.7c3.22-10.81,6.53-21.58,9.66-32.42
		C155.92,80.46,154.81,79.44,150.56,80.63z"/>
	<path class="st0" d="M112.19,102.19c1.96-2.64-2.4-2.69-2.91-4.61c-0.25-0.94-1.19-1.8-1.18-2.69c0.04-3.85-2.28-3.98-5.25-3.92
		c-7.47,0.15-14.95,0.05-22.42,0.05c-6.64,0-13.29,0-19.93,0c-10.75,0-14.28,3.54-14.29,14.34c-0.02,12.54-0.02,12.45,12.39,11.87
		c2.67-0.12,3.7-1.03,3.27-3.52c-0.86-4.99,1.75-5.7,5.99-5.62c11.79,0.23,23.59-0.12,35.37,0.17
		C108,108.38,110.05,105.07,112.19,102.19z"/>
	<path class="st0" d="M232.69,61c-0.09-11.63-8.61-20.01-19.96-20.04c-42.12-0.13-84.24-0.11-126.36-0.01
		c-10.25,0.03-17.85,6.89-19.68,17.08c-0.95,5.29-0.02,10.66-0.57,15.94c-0.53,5.09,1.19,6.53,6.31,6.35
		c11.71-0.41,11.72-0.12,11.75-11.59c0.03-9.29,2.45-11.68,11.93-11.68c35.46-0.01,70.92,0,106.38,0c10.11,0,12.44,2.28,12.44,12.21
		c0.01,21.14,0,42.29,0,63.43c0,10.91-2.18,13.12-13.13,13.14c-14.65,0.03-29.3,0.11-43.95-0.07c-3.42-0.04-4.59,0.84-4.53,4.41
		c0.2,13.62,0.05,27.25,0.09,40.87c0.02,7.8,0.6,15.63-2.32,23.49c0.77,0.2,1.09,0.36,1.41,0.36c9.32,0.03,18.66-0.29,27.96,0.13
		c15.96,0.72,15.25-3.36,15.01-16.24c-0.12-6.69-2.59-8.88-9.23-8.97c-2.5-0.03-4.99-0.01-7.49-0.01c-10.16,0-10.01,0-10.03-9.94
		c-0.01-3.35,1.07-4.16,4.25-4.12c12.82,0.16,25.64,0.1,38.46,0.05c12.26-0.05,21.16-8.22,21.25-20.41
		C232.93,123.93,232.93,92.46,232.69,61z M208.63,159.94c-0.29,3.71-3.36,6.35-7.12,6.13c-3.65-0.22-6.61-3.46-6.36-6.95
		c0.26-3.52,3.55-6.33,7.19-6.14C206.01,153.18,208.91,156.39,208.63,159.94z"/>
	<path class="st0" d="M80.18,135.76c-0.01-6.72-1.94-8.73-8.49-8.74c-12.99-0.04-25.98-0.04-38.96,0c-6.41,0.02-8.64,2.25-8.64,8.74
		c-0.03,23.65-0.03,47.29,0,70.94c0.01,6.27,2.12,8.38,8.39,8.4c13.15,0.05,26.31,0.05,39.46,0c6.38-0.02,8.23-1.93,8.24-8.39
		c0.03-11.82,0.01-23.65,0.01-35.47C80.19,159.4,80.21,147.58,80.18,135.76z M52.11,211.56c-3.39-0.13-5.61-2.35-5.49-5.85
		c0.12-3.24,2.28-5.19,5.54-5.23c3.54-0.05,5.41,2.03,5.78,5.57C57.47,209.45,55.56,211.69,52.11,211.56z M64.97,189.89
		c-8.48-0.28-16.97-0.19-25.45-0.03c-2.94,0.06-4.13-0.71-4.1-3.86c0.13-13.81,0.11-27.62,0.01-41.43c-0.02-2.68,0.61-3.86,3.59-3.8
		c8.81,0.18,17.64,0.21,26.45-0.01c3.29-0.08,3.84,1.22,3.77,4.08c-0.17,6.82-0.05,13.64-0.05,20.46c0,6.65-0.15,13.31,0.06,19.96
		C69.36,188.52,68.72,190.01,64.97,189.89z"/>
</g>
</svg>
