<?xml version="1.0" encoding="utf-8"?>
<!-- Generator: Adobe Illustrator 26.0.1, SVG Export Plug-In . SVG Version: 6.00 Build 0)  -->
<svg version="1.1" id="Layer_1" xmlns="http://www.w3.org/2000/svg" xmlns:xlink="http://www.w3.org/1999/xlink" x="0px" y="0px"
	 viewBox="0 0 192 189" style="enable-background:new 0 0 192 189;" xml:space="preserve">
<style type="text/css">
	.st0{fill:#D70664;}
</style>
<g>
	<path class="st0" d="M170.32,155.22c-1.89-0.29-3.85-0.09-5.67-0.09c0.37-2.9,0.87-5.21,0.92-7.52c0.12-5.99,0.05-11.99,0.02-17.99
		c-0.04-8.37-5.32-14.83-13.7-15.42c-8.32-0.58-16.73-0.43-25.07,0.01c-5.67,0.3-10.39,3.22-12.55,8.7
		c-1.09,2.76-2.65,3.02-5.09,3.02c-8.8,0-9.32-1.13-6.72,8.75c1.73,6.59,3.29,13.23,5.01,20.21c-7.87,0-15.17,0-23.09,0
		c0.36-1.8,0.57-3.13,0.89-4.43c1.68-6.65,3.41-13.3,5.08-19.95c0.92-3.67,0.29-4.48-3.49-4.58c-1.87-0.05-3.82,0.28-5.6-0.12
		c-1.29-0.29-2.91-1.26-3.44-2.37c-2.6-5.47-6.91-8.85-12.73-9.19c-8.46-0.5-16.99-0.53-25.45-0.03
		c-7.2,0.43-13.18,6.25-13.35,12.51c-0.26,9.3-0.07,18.61-0.07,28.42c-1.19,0-3.06-0.2-4.85,0.09c-0.88,0.14-1.62,1.2-2.42,1.84
		c0.8,0.8,1.5,1.76,2.43,2.34c0.54,0.34,1.46,0.07,2.21,0.07c47.98,0,95.95,0.01,143.93,0.01c1,0,2.13,0.23,2.96-0.15
		c0.85-0.39,1.93-1.42,1.92-2.17C172.39,156.48,171.14,155.35,170.32,155.22z M60.44,154.87c-7.97,0.22-15.97,0.34-23.93-0.02
		c-4.43-0.2-6.01-2.52-6.03-6.95c-0.02-5.99-0.01-11.98,0.01-17.97c0.02-6.77,3.79-11.23,10.52-11.54
		c7.59-0.35,15.22-0.31,22.82-0.07c4.39,0.14,7.66,2.57,10.09,7.59c-6.05,0-11.36,0.18-16.66-0.07c-3.23-0.15-4.79,0.94-5.35,4.15
		c-0.64,3.68-1.67,7.29-2.55,10.92c-1.18,4.88-1.2,4.88-6.81,3.84c0-1.85,0.28-3.85-0.1-5.73c-0.24-1.17-1.46-2.15-2.24-3.21
		c-0.67,1.01-1.93,2.02-1.93,3.03c0,12.97-1.67,10.69,10.01,10.83c5.85,0.07,11.69,0.01,18.11,0.01
		C65.42,153.2,63.23,154.79,60.44,154.87z M78.04,154.96c-2.69,0.21-5.41,0.08-8.01,0.08c-0.16-0.65-0.33-0.92-0.26-1.1
		c3.04-8.04,2.59-8.69-5.95-8.62c-3.46,0.03-6.93,0-11.03,0c1.25-5,2.32-9.45,3.53-13.85c0.14-0.49,1.09-1.08,1.66-1.09
		c9.1-0.07,18.2-0.05,27.78-0.05c-1.96,7.95-3.77,15.44-5.73,22.89C79.83,153.96,78.76,154.91,78.04,154.96z M113.52,154.99
		c-0.6-0.03-1.56-0.62-1.69-1.12c-2.01-7.67-3.9-15.36-5.95-23.54c9.57,0,18.54-0.05,27.5,0.08c0.77,0.01,1.96,1.08,2.2,1.88
		c1.18,4.04,2.11,8.16,3.32,13.02c-4.82,0-9.04,0-13.27,0c-5.49,0-6.47,1.37-4.62,6.49c0.33,0.9,0.75,1.77,1.39,3.24
		C119.14,155.04,116.33,155.1,113.52,154.99z M154.94,154.88c-7.84,0.35-15.71,0.23-23.57,0.05c-2.89-0.06-5.07-1.71-6.3-5.23
		c7.28,0,14.2-0.01,21.11,0c7.44,0.01,7.44,0.02,7.39-7.59c-0.01-1.25,0.28-2.59-0.1-3.72c-0.33-0.99-1.39-1.74-2.13-2.59
		c-0.7,0.85-1.67,1.61-2.02,2.58c-0.35,1-0.05,2.22-0.11,3.34c-0.08,1.52,0.54,3.4-2.06,3.57c-2.31,0.15-4.03-0.06-4.59-2.93
		c-0.85-4.4-2.21-8.7-3.08-13.09c-0.52-2.62-1.82-3.47-4.37-3.39c-4.36,0.14-8.73,0.05-13.1,0.01c-1.19-0.01-2.37-0.18-4.09-0.32
		c2.21-4.77,5.61-7.08,10.07-7.24c7.48-0.27,14.98-0.32,22.45,0c6.83,0.3,10.8,4.91,10.84,11.79c0.03,5.87,0.03,11.73,0,17.6
		C161.28,152.22,159.48,154.68,154.94,154.88z"/>
	<path class="st0" d="M70.85,66.61c2.71,2.2,3.95,4.12,2.84,7.41c-0.2,0.57-0.15,1.24-0.18,1.86c-0.16,3.35,1.05,4.22,3.96,2.65
		c3.84-2.07,7.55-4.39,11.43-6.39c1.07-0.55,2.8-0.89,3.77-0.41c6.53,3.3,12.91,6.92,19.41,10.28c1.65,0.85,3.59,1.12,5.4,1.66
		c0.16-1.88,0.69-3.82,0.39-5.62c-0.46-2.76,0.16-4.53,2.45-6.32c5.22-4.07,7.62-9.7,7.82-14.55c0.15-15.39-12.13-25.52-25.63-23.12
		c-1.56,0.28-3.68-0.23-4.98-1.16c-9.46-6.77-22.43-5.2-29.58,3.78C60.71,45.78,61.83,59.3,70.85,66.61z M103.36,38.86
		c7.2-1.99,14.9,1.69,18.42,8.5c3.74,7.24,2.03,15.92-4.14,21.05c-4.23,3.52-4.23,3.52-4.65,8.68c-5.44-2.61-10.83-5.19-16.6-7.96
		C106.91,60.65,108.89,50.68,103.36,38.86z M69.36,43.49c3.4-7.37,10.96-11.22,19.1-9.74c7.12,1.3,12.78,7.78,13.54,15.5
		c0.72,7.35-4.23,14.86-11.34,17.59c-4,1.53-7.85,3.45-12.5,5.51c1.79-4.77-1.24-6.43-4.12-8.62
		C67.97,59.12,66.16,50.43,69.36,43.49z"/>
	<path class="st0" d="M52.25,110.79c7.79,0.1,14.34-6.38,14.35-14.17c0.01-7.91-6.33-14.22-14.26-14.22
		c-7.78,0-14.02,6.17-14.1,13.94C38.16,104.33,44.32,110.69,52.25,110.79z M52.07,86.77c5.59-0.16,10.11,4.12,10.21,9.67
		c0.09,5.32-4.63,10.12-9.95,10.1c-5.22-0.02-9.69-4.52-9.75-9.84C42.51,91.16,46.56,86.93,52.07,86.77z"/>
	<path class="st0" d="M139.49,110.79c7.74-0.2,14.01-6.51,14.04-14.14c0.03-7.9-6.32-14.25-14.25-14.25
		c-8.02,0.01-14.19,6.24-14.12,14.26C125.24,104.67,131.65,110.99,139.49,110.79z M139.63,86.77c5.33,0.12,9.67,4.65,9.55,9.95
		c-0.12,5.25-4.71,9.82-9.86,9.82c-5.38,0-9.88-4.65-9.81-10.13C129.58,90.71,133.86,86.64,139.63,86.77z"/>
	<path class="st0" d="M76.42,53.23c1.86,0,3.36-1.5,3.36-3.36s-1.5-3.36-3.36-3.36c-1.86,0-3.36,1.5-3.36,3.36
		S74.57,53.23,76.42,53.23z"/>
	<path class="st0" d="M84.89,52.87c1.86,0,3.36-1.5,3.36-3.36c0-1.86-1.5-3.36-3.36-3.36c-1.86,0-3.36,1.5-3.36,3.36
		C81.54,51.37,83.04,52.87,84.89,52.87z"/>
	<circle class="st0" cx="93.37" cy="49.15" r="3.36"/>
</g>
</svg>
