<?xml version="1.0" encoding="utf-8"?>
<!-- Generator: Adobe Illustrator 26.0.1, SVG Export Plug-In . SVG Version: 6.00 Build 0)  -->
<svg version="1.1" id="Layer_1" xmlns="http://www.w3.org/2000/svg" xmlns:xlink="http://www.w3.org/1999/xlink" x="0px" y="0px"
	 viewBox="0 0 225.89 224.72" style="enable-background:new 0 0 225.89 224.72;" xml:space="preserve">
<style type="text/css">
	.st0{fill:#D70664;}
</style>
<g>
	<path class="st0" d="M202.12,91.36c-0.04-9.69-6.24-15.4-15.94-15.41c-15.24-0.01-30.48-0.01-45.72,0.01
		c-9.19,0.01-14.99,5.76-15,14.88c-0.01,15.24,0,30.48-0.01,45.72c0,14.99,0.36,29.99-0.14,44.97c-0.29,8.7,5.54,16.2,15.96,16.13
		c14.87-0.1,29.73,0.04,44.6-0.01c9.98-0.03,16.18-5.72,16.23-15.61C202.27,151.83,202.25,121.6,202.12,91.36z M172.29,186.8
		c-2.81,0.37-5.71,0.13-8.57,0.13c0,0,0,0.01,0,0.01c-2.86,0-5.75,0.23-8.57-0.11c-1.1-0.13-2.05-1.54-3.07-2.36
		c1.01-0.82,1.99-2.3,3.03-2.34c5.71-0.23,11.45-0.21,17.16-0.01c0.96,0.03,1.88,1.35,2.82,2.07
		C174.16,185.09,173.32,186.67,172.29,186.8z M194.27,173.04c-1.72,0.12-3.07,0.3-4.41,0.3c-17.86,0.02-35.73-0.02-53.59,0.04
		c-2.4,0.01-3.74-0.55-3.73-3.29c0.07-22.86,0.06-45.71,0.09-68.57c0-0.24,0.11-0.48,0.33-1.34c4.89,0,9.95-0.1,15.01,0.03
		c3.23,0.08,5.4-0.27,5.74-4.42c0.35-4.16,4.82-7.43,9.03-7.61c5.19-0.22,9.66,2.33,10.53,7.06c0.81,4.4,3.01,5.26,6.93,5.01
		c4.58-0.29,9.2-0.07,14.07-0.07C194.27,124.51,194.27,148.55,194.27,173.04z"/>
	<path class="st0" d="M37.92,159.96c-5.5,0-7.41-1.98-7.41-7.46c-0.01-29-0.01-57.99-0.02-86.99c0-1.56,0-3.13,0-5.12
		c22.81,0,44.99,0,67.49,0c0-12.16,0.05-23.88-0.12-35.6c-0.01-0.67-1.78-1.89-2.73-1.89c-19.37-0.11-38.75-0.15-58.12-0.04
		c-7.56,0.04-12.74,4.64-13.84,12.09c-0.43,2.94-0.33,5.98-0.33,8.97c-0.03,35.5,0.03,70.99-0.07,106.49
		c-0.03,10.8,5.39,16.98,16.58,16.81c25.49-0.39,50.99-0.12,76.49-0.14c1.45,0,2.91-0.15,4.51-0.23c0-2.34,0-4.3,0-6.88
		c-1.85,0-3.32,0-4.8,0C89.66,159.97,63.79,159.98,37.92,159.96z M78.38,38.86c1.63-0.43,3.46-0.12,5.2-0.12c0,0.02,0,0.04,0,0.06
		c1.62,0,3.31-0.29,4.83,0.11c0.93,0.24,2.19,1.56,2.17,2.38c-0.01,0.82-1.37,2.25-2.23,2.32c-3.34,0.28-6.73,0.28-10.07,0.02
		c-0.87-0.07-1.65-1.45-2.46-2.22C76.67,40.52,77.38,39.13,78.38,38.86z M57.73,38.83c3.07-0.28,6.2-0.26,9.27,0.06
		c1.01,0.11,1.88,1.49,2.82,2.28c-1,0.86-1.88,2.1-3.04,2.47c-1.35,0.43-2.94,0.1-4.43,0.1c0,0.01,0,0.02,0,0.03
		c-1.49,0-3.08,0.34-4.42-0.1C56.81,43.29,56,42,55.05,41.12C55.94,40.32,56.78,38.92,57.73,38.83z M36.35,38.9
		c3.44-0.25,6.93-0.21,10.37,0.03c0.77,0.06,2.11,1.48,2.02,2.1c-0.14,0.96-1.16,2.34-2.03,2.54c-1.76,0.4-3.68,0.12-5.53,0.12
		c0,0.02,0,0.03,0,0.05c-1.61,0-3.29,0.28-4.8-0.11c-0.88-0.23-2.07-1.53-2.06-2.34C34.33,40.45,35.57,38.96,36.35,38.9z"/>
	<path class="st0" d="M102.97,60.5c1.76,0,2.87,0,3.98,0c20.1,0,40.19,0,60.29-0.01c7.43,0,7.55-0.01,7.67,7.27
		c0.04,2.75,1.14,3.34,3.61,3.3c2.41-0.03,3.59-0.47,3.55-3.31c-0.15-10.73-0.04-21.47-0.06-32.2c0-0.97-0.2-1.98-0.52-2.9
		c-2.24-6.54-7.05-9.81-14.67-9.83c-17.48-0.04-34.95-0.04-52.43,0.01c-3.59,0.01-8.67-1.11-10.38,0.76
		c-1.93,2.11-0.97,6.99-1.01,10.67C102.9,42.84,102.97,51.43,102.97,60.5z M105.51,37c0.08-3.53,1.99-5.71,5.51-5.73
		c18.24-0.09,36.47-0.08,54.71-0.02c3.32,0.01,5.3,2.17,5.47,5.88c0.18,3.74,0.16,7.5,0.02,11.24c-0.14,3.93-2.21,5.9-6.19,5.92
		c-8.87,0.06-17.74,0.02-26.61,0.02c-8.49-0.01-16.99,0-25.48-0.01c-5.95-0.01-7.42-1.5-7.46-7.55
		C105.47,43.5,105.43,40.25,105.51,37z"/>
	<path class="st0" d="M45.51,102.45c0.61,0.09,1.25,0.04,1.87,0.04c21.74,0,43.48,0.01,65.21,0.01c2.75,0,5.64-0.15,5.72-3.77
		c0.08-3.98-3.03-3.92-5.87-3.91c-10.87,0-21.74,0-32.61,0c-7,0-13.99,0-20.99,0c-4.37,0-8.75-0.09-13.12,0.03
		c-2.27,0.06-4.2,0.87-4.27,3.67C41.39,101.3,43.22,102.13,45.51,102.45z"/>
	<path class="st0" d="M115.29,134.65c-0.58-0.5-1.92-0.15-2.92-0.15c-10.85,0-21.7,0-32.55,0c0,0.01,0,0.03,0,0.04
		c-11.22,0-22.45,0-33.67,0c-2.69,0-4.76,0.8-4.67,3.95c0.08,3.06,2.41,3.54,4.74,3.53c19.58-0.05,39.15-0.17,58.73-0.25
		c3.36-0.01,6.76,0.37,10.07-0.04c1.25-0.15,3.28-2.09,3.19-3.07C118.09,137.22,116.55,135.74,115.29,134.65z"/>
	<path class="st0" d="M114.5,114.94c-0.74,0.05-1.5-0.04-2.24-0.04c-21.84-0.01-43.67-0.02-65.51-0.02c-2.61,0-5.29,0.06-5.23,3.69
		c0.06,3.69,2.86,3.46,5.39,3.46c10.98,0.01,21.96,0,32.94,0c11.48,0,22.96-0.03,34.44,0.02c2.59,0.01,4.12-1.05,4.1-3.68
		C118.37,115.94,116.97,114.78,114.5,114.94z"/>
	<path class="st0" d="M113.54,82.26c2.42,0.01,4.72-0.15,4.81-3.28c0.09-3.21-2.05-3.79-4.76-3.79c-22.35,0.04-44.7,0.04-67.04,0.03
		c-2.54,0-5.02,0.21-5.07,3.48c-0.05,3.35,2.51,3.5,5.02,3.5c11.11,0,22.22,0,33.33,0c0,0.01,0,0.03,0,0.04
		C91.07,82.24,102.31,82.23,113.54,82.26z"/>
	<path class="st0" d="M176.7,125.06c-1.68,1.9-1.39,3.85,0.54,5.54c2.05,1.79,4.08,3.61,7.12,6.3c-2.99,2.51-5.13,4.23-7.17,6.06
		c-1.84,1.65-2.2,3.67-0.54,5.6c1.84,2.15,3.85,1.31,5.54-0.25c2.92-2.71,5.83-5.45,8.52-8.38c1.73-1.89,2.23-4.1,0.02-6.23
		c-2.87-2.76-5.64-5.63-8.5-8.42C180.47,123.58,178.49,123.02,176.7,125.06z"/>
	<path class="st0" d="M150.15,130.41c1.65-1.73,2.62-3.46,0.55-5.43c-1.86-1.77-3.83-1.52-5.59,0.23c-2.92,2.88-5.84,5.77-8.67,8.74
		c-0.64,0.67-0.93,1.68-1.54,2.81c0.64,1.07,1.09,2.22,1.87,3.04c2.66,2.79,5.49,5.41,8.14,8.2c1.83,1.94,3.75,2.56,5.78,0.59
		c2.15-2.08,1.05-3.93-0.68-5.76C144.18,136.7,144.18,136.65,150.15,130.41z"/>
	<path class="st0" d="M171.95,123.11c-1.32-0.51-4.11-0.04-4.74,0.97c-4.51,7.14-8.72,14.48-12.81,21.88
		c-1.37,2.47,0.56,5.28,3.9,5.28c0.41-0.27,1.66-0.65,2.15-1.48c4.36-7.38,8.7-14.77,12.72-22.33
		C173.71,126.4,172.83,123.45,171.95,123.11z"/>
	<path class="st0" d="M163.75,103.25c2.82-0.05,4.81-2.13,4.8-5.02c-0.01-3.32-1.79-5.1-5.04-5.05c-3.05,0.05-5.03,1.96-5.02,4.84
		C158.52,100.77,161.05,103.3,163.75,103.25z"/>
	<path class="st0" d="M156.79,49.24c9.9-0.01,9.83-0.02,9.45-10c-0.09-2.31-0.93-3.05-3.13-3.01c-5.61,0.1-11.23,0.06-16.85,0.06
		c-10.73-0.01-21.46-0.09-32.19,0.05c-1.21,0.02-3.33,1.2-3.43,2.02c-0.39,3.42-0.16,6.91-0.16,10.89
		C126.36,49.24,141.57,49.25,156.79,49.24z M118.62,40.23c13.1-0.01,26.21-0.01,39.31-0.03c1.98,0,4.1,0.1,4.08,2.65
		c-0.02,2.66-2.25,2.46-4.16,2.46c-6.49-0.02-12.98-0.01-19.47-0.01c0-0.01,0-0.02,0-0.03c-6.61,0-13.23,0.13-19.84-0.11
		c-1.34-0.05-3.6-1.31-3.76-2.27C114.37,40.28,116.69,40.24,118.62,40.23z"/>
</g>
</svg>
