<?xml version="1.0" encoding="utf-8"?>
<!-- Generator: Adobe Illustrator 26.0.1, SVG Export Plug-In . SVG Version: 6.00 Build 0)  -->
<svg version="1.1" id="Layer_1" xmlns="http://www.w3.org/2000/svg" xmlns:xlink="http://www.w3.org/1999/xlink" x="0px" y="0px"
	 viewBox="0 0 255.89 256.72" style="enable-background:new 0 0 255.89 256.72;" xml:space="preserve">
<style type="text/css">
	.st0{fill:#D70664;}
</style>
<g>
	<path class="st0" d="M224.74,180.17c0.05-44.63-0.02-89.26,0.14-133.89c0.02-4.15-1.66-4.44-4.99-4.43
		c-60.95,0.08-121.9,0.11-182.85-0.05c-4.32-0.01-5.08,1.31-5.07,5.3c0.15,43.96,0.17,87.93-0.03,131.89
		c-0.02,4.7,1.35,5.71,5.79,5.66c20.15-0.23,40.3-0.04,60.45-0.16c3.72-0.02,4.43,0.81,2.5,4.14c-2.5,4.31-4.76,8.77-6.83,13.3
		c-1.35,2.95-3.14,4.19-6.51,4.1c-8.32-0.24-16.66,0.13-24.97-0.17c-3.86-0.14-3.28,2.08-3.35,4.39c-0.08,2.51-0.16,4.36,3.48,4.35
		c43.8-0.12,87.59-0.11,131.39-0.01c3.6,0.01,3.91-1.57,4-4.51c0.1-3.24-0.84-4.3-4.17-4.21c-8.32,0.23-16.65,0.08-24.98,0.07
		c-1.64,0-3.57,0.4-4.51-1.37c-3.39-6.41-6.65-12.89-10.36-20.12c15.82,0,30.7,0,46.02,0c-4.33-6.86-8.38-13.11-12.24-19.46
		c-1.5-2.47-3.36-2.02-5.59-1.51c-7.55,1.71-14.92,1.05-21.86-2.46c-3.08-1.56-6.2-2.08-9.6-2.07c-34.97,0.06-69.94-0.01-104.91,0.1
		c-3.57,0.01-5.2-0.43-5.18-4.73c0.2-33.8,0.17-67.61,0.03-101.42c-0.01-3.71,0.96-4.78,4.74-4.77c55.45,0.12,110.91,0.12,166.36,0
		c3.6-0.01,4.37,1.13,4.36,4.51c-0.12,33.97-0.12,67.94,0,101.92c0.01,3.35-0.61,4.93-4.3,4.48c-2.43-0.3-4.93-0.06-8.6-0.06
		c5.28,8.46,9.98,15.88,14.55,23.38c1.41,2.32,3.48,2.51,5.63,2.01C225.67,183.82,224.74,181.65,224.74,180.17z"/>
	<path class="st0" d="M138.71,149.67c6.47-0.41,6.73-0.34,4.48-6.44c-3.12-8.47-3.23-16.88-0.03-25.34c0.41-1.08,0.9-2.22,0.91-3.33
		c0.07-13.98,0.35-27.97-0.08-41.93c-0.15-5.04-4.88-1.83-7.44-2.53c-3.15-0.85-4.27,0.67-4.22,3.99
		c0.18,11.65,0.07,23.3,0.07,34.95c0,11.48,0.32,22.98-0.14,34.44C132.05,148.82,133.83,149.98,138.71,149.67z"/>
	<path class="st0" d="M116.45,149.16c0.65-0.1,1.34-0.1,1.99,0c3.44,0.52,4.52-0.83,4.48-4.36c-0.17-17.61-0.14-35.23-0.02-52.85
		c0.02-2.97-0.66-4.39-3.85-3.95c-1.3,0.18-2.68,0.18-3.98,0c-3.26-0.45-4.24,0.81-4.15,4.09c0.22,8.64,0.08,17.28,0.08,25.92
		c0,8.64,0.32,17.3-0.13,25.92C110.64,148.59,112.31,149.82,116.45,149.16z"/>
	<path class="st0" d="M93.07,149.6c1.48-0.15,3.01-0.18,4.48,0.01c3.45,0.43,4.2-1.23,4.12-4.34c-0.18-6.97-0.06-13.95-0.06-20.93
		c0-5.65,0.09-11.3-0.02-16.94c-0.17-8.78,1.95-7.84-8.35-8.01c-2.68-0.04-3.88,0.65-3.86,3.6c0.12,14.29,0.11,28.57,0.01,42.86
		C89.37,148.61,90.2,149.89,93.07,149.6z"/>
	<path class="st0" d="M174.35,75.22c1.99,0.84,3.59,1.9,5.32,0.1c1.17-1.22,1.14-2.84,0.08-4.12c-1.64-1.98-3.26-1.1-5.25-0.09
		c-9.65,4.88-20.33,0.24-23.25-10.08c-0.89-3.15-2.44-3.53-5.11-2.32c-4.42,2-8.78,2.09-13.27-0.13c-2.96-1.47-4.43-0.71-5.26,3.14
		c-2.08,9.63-8.62,16.42-19.61,12.1c-3.42-1.35-4.76-0.4-5.16,3.36c-1.41,13.28-8.26,19.98-23.69,13.41
		c-1.98-0.85-4.35-0.83-4.64,1.06c-0.69,4.63-4.75,5.66-7.41,8.16c-3.04,2.85-7,4.72-9.13,8.58c3.42-0.59,5.8-2.7,8.05-4.77
		c9.07-8.36,19.4-10.87,31.22-7.37c2.54,0.75,4.37-0.7,4.04-2.91c-0.52-3.52,1.26-6.09,2.46-8.93c3.13-7.35,8.39-9.14,15.39-5.29
		c2.44,1.34,4.91,0.71,4.89-1.83c-0.04-4.16,2.51-6.76,4.33-9.81c2.7-4.53,9.33-6.61,15.42-5.22c5.2,1.19,8.54,4.62,9.32,10.18
		c0.56,3.97,2.24,4.42,5.81,3.24C163.91,74,169.25,73.07,174.35,75.22z"/>
	<path class="st0" d="M181.6,149.11c2.87,0.29,5.47,0.52,5.31-4.05c-0.34-9.95-0.1-19.93-0.1-29.89c0-7.72-0.04-7.56-7.46-9.47
		c-3.22-0.83-4.29,0-4.25,3.17c0.08,6.14,0.02,12.29,0.02,18.43c0,5.98,0.19,11.97-0.06,17.93
		C174.83,150.94,178.92,148.83,181.6,149.11z"/>
	<path class="st0" d="M72.54,149.17c1.31-0.18,2.68-0.17,3.99,0c2.96,0.38,3.64-0.98,3.56-3.7c-0.18-5.65-0.05-11.32-0.05-16.97
		c0-6.16-0.08-12.32,0.04-18.47c0.04-2.29-0.57-3.44-3.05-3.19c-1.48,0.15-3.02,0.19-4.49-0.01c-3.56-0.48-4.48,1.01-4.42,4.46
		c0.2,11.15,0.21,22.3,0,33.45C68.05,148.18,69,149.67,72.54,149.17z"/>
	<path class="st0" d="M156.63,148.02c2.3,2.06,5.11,1.54,7.55,0.86c2.22-0.61,1.32-3.1,1.35-4.8c0.1-5.47,0.04-10.94,0.04-16.41
		c0-5.8,0.03-11.6-0.03-17.4c-0.01-1.14,0.46-2.85-1.78-2.57c-3.64,0.46-9.71,7.02-9.75,10.82c-0.09,7.95,0,15.91-0.04,23.87
		C153.95,144.74,154.96,146.52,156.63,148.02z"/>
	<path class="st0" d="M181.74,81.32c-7.76,0.59-6.52-0.29-6.62,6.74c-0.02,1.82,0.09,3.64-0.03,5.45c-0.12,1.8,0.68,2.58,2.35,3.14
		c8.78,2.93,9.53,2.43,9.53-7.21C186.05,86.53,189.86,80.7,181.74,81.32z"/>
	<path class="st0" d="M165.22,85.4c-1.02-2.3-5.16-0.64-7.88-0.96c-2.39-0.28-3.67,0.45-3.57,3.22c0.18,4.93,0.05,9.87,0.05,15.32
		c3.73-1.72,6.7-3.09,9.65-4.47c1.08-0.5,2.25-1.2,2.27-2.41C165.8,92.49,166.57,88.45,165.22,85.4z"/>
</g>
</svg>
