<?xml version="1.0" encoding="utf-8"?>
<!-- Generator: Adobe Illustrator 26.0.1, SVG Export Plug-In . SVG Version: 6.00 Build 0)  -->
<svg version="1.1" id="Layer_1" xmlns="http://www.w3.org/2000/svg" xmlns:xlink="http://www.w3.org/1999/xlink" x="0px" y="0px"
	 viewBox="0 0 255.89 256.72" style="enable-background:new 0 0 255.89 256.72;" xml:space="preserve">
<style type="text/css">
	.st0{fill:#D70664;}
</style>
<g>
	<path class="st0" d="M228.51,59.39c-0.04-12.29-4.29-16.89-16.45-17.84c-1.66-0.13-3.33-0.07-4.99-0.07c-33.13,0-66.27,0-99.4,0
		c0,0.14,0,0.28,0,0.42c-10.16,0-20.32-0.02-30.48,0.01c-10.32,0.03-20.65,0.11-30.97,0.15c-12.43,0.05-17.99,5.58-17.99,18.01
		c-0.01,36.14-0.01,72.27,0,108.41c0,12.36,6.02,18.45,18.35,18.48c15.49,0.04,30.98-0.01,46.47,0.02c3.65,0.01,8.8-1.24,10.56,0.64
		c2.26,2.41-0.51,7.09-1.13,10.77c-1.36,8.08-1.48,8.08-9.6,9.61c-1.8,0.34-3.14,1.18-3.54,3.02c-0.46,2.12,1.12,2.99,2.67,3.65
		c2,0.85,4.12,1.16,6.33,1.15c21.15-0.01,42.3,0.02,63.45,0.08c2.71,0.01,5.65-0.64,5.9-3.35c0.26-2.88-2.18-4.62-5.33-4.59
		c-4.64,0.04-6.96-2.44-7.65-6.86c-0.41-2.63-1.09-5.21-1.56-7.83c-1.04-5.87-0.34-6.74,5.66-6.71c17.65,0.1,35.29,0.35,52.94,0.37
		c10.78,0.01,16.39-5.5,16.76-16.16c0.19-5.49,0.28-10.98,0.27-16.47C228.71,122.66,228.61,91.03,228.51,59.39z M53.04,56.47
		c25.31-0.01,50.61,0,75.92,0.01c26.29,0.01,52.58,0.02,78.86-0.01c4.45-0.01,6.96,1.91,6.94,6.5c-0.07,23.3-0.16,46.61-0.25,69.91
		c-0.01,3.7-1.79,5.37-5.59,5.31c-9.65-0.16-19.31-0.12-28.96-0.2c-6.23-0.05-7.51-1.27-7.55-7.73c-0.08-13.65-0.03-27.3-0.03-40.96
		c0-6.49,0.07-12.99-0.05-19.48c-0.03-1.63,1-3.99-1.63-4.58c-2.09-0.47-4.41-0.73-5.79,1.59c-2.79,4.7-5.38,4.68-8.4,0.07
		c-2.28-3.49-4.57-1.6-6.26,0.75c-2.44,3.41-4.28,4.46-7.15,0.12c-2.7-4.08-4.7-3.72-6.92,0.58c-1.69,3.25-3.61,3.77-5.91,0.75
		c-3.13-4.1-5.94-4.66-8.9,0.23c-2.21,3.65-4.4,1.26-5.79-0.68c-2.65-3.71-4.81-3.76-7.55-0.14c-1.68,2.22-3.97,4.18-5.86,0.11
		c-2.5-5.4-5.58-3.37-8.02-0.39c-2.75,3.36-4.27,2.92-6.37-0.51c-2.52-4.12-5.06-3.83-7.5,0.52c-2.3,4.11-4.07,4.28-7.55,0.8
		c-1.16-1.17-2.31-2.49-3.73-3.23c-3.51-1.83-6.1-0.2-6.11,3.74c-0.04,12.15-0.01,24.31-0.02,36.46c0,1.33,0.06,2.67-0.02,3.99
		c-0.53,8.1-1.89,9.32-10.01,9.14c-0.33-0.01-0.66-0.04-1-0.05c-8.8-0.32-8.79-0.32-8.8-9.08c0-14.48,0.09-28.97-0.05-43.45
		C42.92,57.11,43.4,56.47,53.04,56.47z M91.98,107.1c2.47-3.15,5.13-3.1,8.15-0.72c3.63,2.87,6.94,6.25,11.48,7.75
		c1.2,0.4,2.89,0.82,3.79,0.28c1.44-0.87,0.32-2.53-0.24-3.55c-1.9-3.45-0.8-5.95,1.69-8.62c3.17-3.39,5.85-7.23,8.89-10.75
		c3.3-3.82,5.98-3.79,8.87,0.19c9.27,12.77,18.45,25.62,27.66,38.43c1.29,1.79,2.66,3.74,1.4,5.93c-1.11,1.91-3.33,1.95-5.36,1.95
		c-13.47,0-26.93,0-40.4,0c-12.3,0-24.61,0-36.91,0c-0.83,0-1.66,0.01-2.49,0c-2.51-0.03-5.47,0.16-6.7-2.3
		c-1.34-2.68,0.77-5.01,2.42-7.05c5.03-6.19,10.13-12.32,15.21-18.47C90.28,109.14,91.16,108.15,91.98,107.1z M90.88,89.83
		c0.01-4.6,3.89-8.7,8.33-8.8c4.37-0.1,8.57,3.98,8.7,8.45c0.13,4.63-3.67,8.49-8.42,8.54C94.42,98.07,90.87,94.69,90.88,89.83z
		 M221.56,159.06c-0.3,4.14-0.3,8.3-0.44,12.46c-0.16,4.78-2.82,7.28-7.39,7.89c-1.97,0.26-3.97,0.39-5.95,0.39
		c-42.77,0.02-85.54,0.03-128.31,0c-10.98-0.01-21.97-0.14-32.95-0.26c-8.09-0.09-10.56-2.42-10.57-10.36
		c-0.01-4.8-2.02-10.97,0.76-14.02c2.86-3.13,9.13-0.95,13.89-0.97c26.13-0.11,52.27-0.05,78.4-0.05c29.13,0,58.26,0.08,87.39-0.09
		C220.35,154.02,221.83,155.16,221.56,159.06z"/>
	<path class="st0" d="M192.83,76.95c0.16,0.01,0.33-0.02,0.5-0.03c0.5,0.02,0.99,0.07,1.49,0.07c2.74-0.02,6.16,0.83,6.94-2.96
		c0.69-3.32-2.83-3.51-4.71-4.85c-0.26-0.19-0.63-0.23-0.9-0.42c-4.13-2.82-6.62,1.15-9.72,2.42c-1.33,0.55-1.68,2.09-1.04,3.44
		C187,78.02,190.13,76.86,192.83,76.95z"/>
	<path class="st0" d="M191.74,90.15c3.11-0.31,5.25-0.47,7.39-0.74c2.24-0.28,3.04-1.76,2.95-3.86c-0.09-2.11-1.05-3.54-3.28-3.58
		c-3.64-0.07-7.32-0.29-10.93,0.09c-2.67,0.28-3.88,2.47-2.06,4.64C187.45,88.65,189.91,89.99,191.74,90.15z"/>
	<path class="st0" d="M194,103.55c2.85-0.73,7.97-1.58,7.61-5.79c-0.39-4.56-4.96-2.34-8.09-2.86c-1.56,0-3.4-0.09-5.22,0.02
		c-2.55,0.16-4.06,2.17-2.91,4.02C187.21,101.9,190.78,104.37,194,103.55z"/>
	<path class="st0" d="M193.82,107.9c-1.97,0-3.8-0.1-5.61,0.02c-2.57,0.17-3.48,1.82-2.88,4.12c0.43,1.69,7.89,5.2,9.34,4.26
		c2.58-1.67,7.6-1.63,6.98-5.79C200.97,106.07,196.51,108.46,193.82,107.9z"/>
	<path class="st0" d="M129.04,160.74c-3.06-0.19-4.74,2.74-5.98,5.19c-0.7,1.39,3.96,5.94,6.24,6.01c2.43-1.18,6.29-2.15,6.27-5.56
		C135.56,163.15,132.22,160.94,129.04,160.74z"/>
</g>
</svg>
