<?xml version="1.0" encoding="utf-8"?>
<!-- Generator: Adobe Illustrator 26.0.1, SVG Export Plug-In . SVG Version: 6.00 Build 0)  -->
<svg version="1.1" id="Layer_1" xmlns="http://www.w3.org/2000/svg" xmlns:xlink="http://www.w3.org/1999/xlink" x="0px" y="0px"
	 viewBox="0 0 256 256" style="enable-background:new 0 0 256 256;" xml:space="preserve">
<style type="text/css">
	.st0{fill:#D70664;}
</style>
<g>
	<path class="st0" d="M174.76,92.1c-8.7-12.67-4.42-21.95,10.24-27.5C144.74,26.29,77.72,42.53,58.12,81.14
		c1.58,0,3.07,0.05,4.56-0.01c6.81-0.25,13.63-0.47,20.43-0.81c2.52-0.13,5.1,0.03,5.5,2.92c0.47,3.43-2.39,3.8-4.98,4.08
		c-2.45,0.27-4.89,0.61-7.74,0.98c10.32,30.61,20.54,60.97,30.77,91.32c6.73-17.23,12.44-34.24,18.09-51.27
		c0.98-2.95,0.59-5.83-0.53-8.76c-2.91-7.6-5.99-15.17-8.31-22.95c-1.79-6-4.37-10.08-11.36-9.55c-2.3,0.18-4.01-0.98-3.9-3.47
		c0.1-2.54,2.06-3.26,4.25-3.18c2.65,0.09,5.3,0.51,7.95,0.55c11.48,0.19,22.96,0.68,34.41-0.6c2.58-0.29,5.01-0.08,5.49,2.8
		c0.5,3.03-1.8,3.83-4.41,4.05c-2.64,0.22-5.26,0.66-8.31,1.05c10.19,30.27,20.31,60.34,30.43,90.42
		c4.01-9.83,6.33-19.84,9.93-29.37C188.03,129.18,187.48,110.63,174.76,92.1z"/>
	<path class="st0" d="M129.38,28.44c-53.77-0.82-100,40.92-100.76,99.07c-0.71,54.86,44.53,100.42,98.46,100.43
		c56.07,0.01,101.01-44.2,101.01-99.39C228.43,77.75,189.28,29.35,129.38,28.44z M128.58,223.1c-53.63,0-95.38-41.96-95.36-95.85
		c0.01-51.77,42.98-94.35,95.19-94.33c52.61,0.02,95.13,42.67,95.11,95.41C223.5,180.97,181.29,223.09,128.58,223.1z"/>
	<path class="st0" d="M140.34,163.97c-3.34-9.15-6.68-18.29-10.48-28.69c-8.51,24.64-16.53,47.85-24.52,71.08
		c-0.66,1.92-2.02,3.95,1.69,4.73c15.19,3.19,30.3,3.45,45.4-0.51c3.49-0.92,4.25-2.33,2.85-5.95
		C150.08,191.15,145.29,177.53,140.34,163.97z"/>
	<path class="st0" d="M90.65,204.67C88.69,197.03,52.23,97.85,50.2,94.53C32.82,129.44,46.18,183.53,90.65,204.67z"/>
	<path class="st0" d="M204.88,90.11c-0.13-0.87-0.92-1.85-1.43-1.36c-1,0.97-0.56,2.31,0.32,3.37c0,0,0,0,0,0
		c0.48,9.93-1.25,19.47-4.53,28.84c-8.29,23.65-16.46,47.34-24.58,71.04c-0.96,2.8-2.72,5.5-2.27,8.88
		C207.19,182.42,226.4,131.55,204.88,90.11z"/>
</g>
</svg>
