<?xml version="1.0" encoding="utf-8"?>
<!-- Generator: Adobe Illustrator 26.0.1, SVG Export Plug-In . SVG Version: 6.00 Build 0)  -->
<svg version="1.1" id="Layer_1" xmlns="http://www.w3.org/2000/svg" xmlns:xlink="http://www.w3.org/1999/xlink" x="0px" y="0px"
	 viewBox="0 0 120 120" style="enable-background:new 0 0 120 120;" xml:space="preserve">
<style type="text/css">
	.st0{fill:#D70664;}
</style>
<g>
	<path class="st0" d="M116.26,32.97c-0.02-5.93-3.87-10.28-9.52-11.22c-5.09-0.84-10.06,2.3-11.88,7.74
		c-0.51,1.51-1.21,1.96-2.73,1.93c-5.17-0.09-10.34-0.09-15.5,0c-1.55,0.03-2.59-0.57-3.61-1.62c-3.75-3.83-7.66-7.52-11.32-11.45
		c-1.22-1.3-3.45-1.36-4.02-2.81c-1.37-3.46-4.42-5.28-6.75-7.79c-2.34-2.52-4.64-2.49-7.33-0.28c-0.99,0.82-1.91,1.74-2.79,2.69
		c-3.07,3.31-2.96,5.43,0.08,8.71c3.8,4.11,8.77,7.08,11.9,12.51c-8.45,0-16.6,0.02-24.74-0.01c-2.37-0.01-5.38,0.71-6.94-0.45
		c-1.71-1.28-0.35-4.45-0.6-6.78c-0.05-0.49,0-1-0.06-1.49c-0.08-0.65-0.46-0.99-1.12-1.19C11.98,19.32,4.4,24.75,4.35,32.57
		C4.22,52.55,4.26,72.53,4.34,92.5c0.02,5.13,3.39,9.43,8.09,10.55c1.81,0.43,3.76,0.48,5.62,0.35c2.06-0.15,2.65,0.65,2.41,2.53
		c-0.09,0.68-0.02,1.39-0.01,2.09c0.02,4.44,1,5.44,5.38,5.44c18.98-0.01,37.97-0.02,56.95-0.04c8.12-0.01,8.16,0,8.53-8.16
		c0.07-1.42,0.44-1.87,1.86-1.84c3.87,0.08,7.75,0.08,11.63,0c6.84-0.12,11.44-4.6,11.46-11.42
		C116.33,72.33,116.33,52.65,116.26,32.97z M63.6,23.9c6.33,6.41,12.73,12.75,19.1,19.13c0.41,0.41,0.95,0.75,0.95,1.36
		c-2.31,2.08-3.92,1.14-5.81-0.84c-5.48-5.72-11.17-11.24-16.77-16.84c-0.86-0.86-2.12-1.48-0.51-3.01
		C61.92,22.4,62.54,22.82,63.6,23.9z M81.29,53.63c-0.99-0.13-2.29-0.14-1.67-1.92c0.84-2.42,2.37-3.93,4.83-4.73
		c1.68-0.55,1.46,0.65,1.77,1.48C86.2,49.16,82.02,53.72,81.29,53.63z M86.86,51.98c1.03,1,0.8,2.23,1.32,3.21
		c-1.3,0.68-2.2-0.63-3.41-0.34C84.96,53.35,86.1,52.93,86.86,51.98z M77.42,51.05c-0.26,0.01-0.52,0.02-0.77,0.03
		c-6.86-6.86-13.7-13.75-20.63-20.55c-1.28-1.26-0.37-1.76,0.34-2.54c0.73-0.8,1.25-1.29,2.31-0.21
		c6.25,6.36,12.54,12.68,18.92,18.91C79.59,48.63,76.99,49.54,77.42,51.05z M44.46,18.58c-1.95-0.14-3.83-4.04-2.71-5.56
		c0.76-1.03,1.67-1.96,2.61-2.83c2.62-2.46,4.95-2.02,6.63,1.09c0.33,0.61,0.15,0.89-0.2,1.24c-1.89,1.9-3.78,3.79-5.68,5.67
		C44.91,18.38,44.63,18.48,44.46,18.58z M47.67,22c-1.02-0.64-1.64-1.35-0.36-2.49c1.62-1.44,3.06-3.09,4.65-4.57
		c0.47-0.44,0.8-1.59,1.84-0.78c0.73,0.56,1.22,1.28,1.37,2.92c-1.64,1.56-3.6,3.48-5.63,5.31C48.9,22.98,48.2,22.33,47.67,22z
		 M51.73,26.05c-0.52-0.78-0.68-1.58,0.16-2.37c1.43-1.35,2.85-2.71,4.15-4.19c1.21-1.38,2.18-0.74,3.25,0.11
		c1.49,1.2,0.1,1.8-0.53,2.47c-1.42,1.5-2.91,2.93-4.37,4.38c-0.34,0.34-0.7,0.65-1.01,0.93C52.49,27.21,52.1,26.6,51.73,26.05z
		 M6.84,33.56c0.02-6.5,3.39-9.84,9.39-9.68c1.48,0.04,1.8,0.5,1.79,1.87c-0.04,17.8-0.03,35.59-0.02,53.39
		c0,1.18,0.06,2.18-1.64,2.01c-3.47-0.35-6.4,0.97-9.53,3.72c0-2.96,0-5.21,0-7.47C6.83,62.79,6.8,48.18,6.84,33.56z M85.94,111.02
		c-10.04-0.13-20.08-0.06-30.12-0.06c0,0.01,0,0.02,0,0.04c-10.04,0-20.08-0.05-30.12,0.04c-2.09,0.02-2.87-0.61-2.74-2.7
		c0.14-2.08,0.07-4.17,0.02-6.26c-0.04-1.57,0.45-2.36,2.22-2.35c1.76,0,1.5,1.07,1.59,2.17c0.09,1.04-0.61,2.76,1.29,2.69
		c1.55-0.06,1.14-1.59,1.15-2.61c0.01-1.23-0.17-2.25,1.74-2.28c2.01-0.03,2.04,0.98,1.93,2.38c-0.02,0.3,0,0.6,0,0.89
		c-0.01,0.89,0.26,1.64,1.27,1.67c1.09,0.03,1.13-0.82,1.23-1.65c0.12-1.04-0.56-2.38,0.51-3.04c0.65-0.4,1.77-0.28,2.61-0.08
		c1.07,0.26,0.55,1.31,0.66,2.03c0.16,1-0.47,2.58,1.06,2.69c1.78,0.13,1.51-1.53,1.43-2.65c-0.11-1.6,0.3-2.25,2.09-2.26
		c2.05-0.01,1.58,1.26,1.61,2.37c0.03,1.19,0.03,2.39,0.01,3.58c-0.02,0.82,0.33,1.41,1.12,1.47c1.03,0.08,1.33-0.64,1.33-1.54
		c0-1.39,0.07-2.79-0.02-4.17c-0.09-1.34,0.48-1.69,1.74-1.68c1.25,0.01,2.08,0.1,2.02,1.71c-0.05,1.18-0.6,3.1,1.2,3.16
		c1.88,0.06,1.33-1.88,1.3-3.04c-0.04-1.47,0.52-1.77,1.9-1.86c2.09-0.13,1.86,1.12,1.89,2.44c0.02,0.99-0.47,2.53,1.23,2.48
		c1.61-0.05,1.2-1.55,1.19-2.56c-0.02-1.38-0.1-2.4,1.92-2.39c2.21,0.01,1.72,1.34,1.75,2.55c0.03,1.09-0.15,2.48,1.43,2.4
		c1.41-0.07,1.09-1.44,1.07-2.37c-0.04-1.5-0.07-2.64,2.1-2.58c2.23,0.06,1.65,1.46,1.7,2.63c0.05,1.09,0.01,2.19,0.02,3.28
		c0.01,0.75,0.22,1.47,1.08,1.51c0.96,0.04,1.39-0.64,1.4-1.55c0.02-1.39,0.11-2.79-0.01-4.17c-0.15-1.69,0.84-1.6,2.02-1.66
		c1.34-0.07,1.81,0.42,1.66,1.7c-0.06,0.49,0.01,0.99-0.01,1.49c-0.03,0.87,0.16,1.68,1.16,1.75c1.32,0.09,1.14-0.97,1.34-1.84
		c0.24-1.11-1.08-2.99,1.47-3.09c1.51-0.06,2.47,0.13,2.3,2.02c-0.1,1.09-0.49,2.82,1.16,2.9c1.69,0.07,1.29-1.63,1.36-2.76
		c0.06-1.02-0.36-2.21,1.49-2.18c1.72,0.02,2.29,0.68,2.22,2.32c-0.09,1.98-0.16,3.99,0.02,5.96
		C89.14,110.29,88.37,111.05,85.94,111.02z M92.84,100.95c-0.88,0.02-1.35-0.15-1.67-1.16c-0.62-1.96-2.21-2.55-4.22-2.54
		c-20.67,0.04-41.35,0.04-62.02,0.04c-1.24,0-2.7,0.01-3.24,1.09c-2.19,4.43-5.93,2.68-8.96,2.05c-4.05-0.83-6.33-5.01-5.8-9.21
		c0.54-4.24,3.66-7.26,7.88-7.61c5.68-0.48,5.68-0.48,5.68-6.27c0-13.52,0.07-27.03-0.06-40.55c-0.02-2.43,0.72-2.93,2.99-2.9
		c10.04,0.12,20.08,0.09,30.11,0.01c1.73-0.01,2.95,0.48,4.16,1.72c5.49,5.61,11.14,11.07,16.6,16.71c1.94,2.01,4.05,3.33,6.79,3.92
		c2.61,0.56,5.14,1.49,7.72,2.19c1.88,0.51,2.98,0.11,2.3-2.19c-1.01-3.42-1.96-6.86-2.9-10.3c-0.33-1.2-1.06-2.08-1.93-2.93
		c-2.89-2.83-5.74-5.69-9.13-9.07c5.78,0,10.88,0.01,15.98-0.01c1.75-0.01,1.16,1.28,1.17,2.12c0.04,6.56,0.02,13.12,0.02,19.68
		c0,11.03,0.07,22.07-0.03,33.1c-0.04,4.33,0.09,8.5,3.84,12.1C95.96,100.93,94.4,100.91,92.84,100.95z M109.15,97.84
		c-0.54,2.02-2.02,3.06-4.18,3.09c-4.02,0.04-7.66-3.32-8.17-7.56c-0.48-4.06,2.83-8.82,7.01-8.95c0,1.06,0.06,2.12-0.01,3.17
		c-0.18,2.53-0.33,4.69,3.2,5.35C109.16,93.34,109.71,95.73,109.15,97.84z M112.02,97.53c-0.36-3.98-2.04-5.98-4.92-7.55
		c-2.06-1.12-0.26-3.74-0.98-5.71C112.69,85.39,115.43,91.11,112.02,97.53z M113.68,85.08c-2.75-2.09-5.32-3.58-8.55-3.5
		c-3.13,0.08-5.71,1.31-8.38,3.87c0-18-0.04-35.28,0.02-52.56c0.02-5,3.61-8.61,8.32-8.71c4.47-0.1,8.45,3.14,8.5,7.82
		C113.8,49.55,113.68,67.09,113.68,85.08z"/>
	<path class="st0" d="M29.69,65.5c1.78,0.08,2.4,0.46,2.36,2.34c-0.13,5.56,0.02,11.13-0.08,16.7c-0.04,2.01,0.52,2.8,2.68,2.78
		c10.64-0.1,21.27-0.08,31.91-0.01c1.95,0.01,2.64-0.64,2.61-2.58c-0.09-4.67-0.03-9.34-0.03-14.02c0-5.02,0-5.03,5.05-5.13
		c1.21-0.02,2.44,0.09,3.1-1.23c0.72-1.46-0.44-2.2-1.25-3.01c-7.54-7.5-15.12-14.96-22.64-22.48c-1.93-1.93-3.75-2.05-5.62-0.05
		c-1.89,2.02-3.74,4.07-5.61,6.11c-0.29-0.12-0.58-0.25-0.87-0.37c0.64-3-0.84-3.44-3.29-3.38c-5.85,0.13-6.19,0.06-5.76,5.83
		c0.39,5.17-0.86,9.16-5.09,12.37c-1.49,1.13-4.19,2.36-3.3,4.77C24.83,66.83,27.68,65.41,29.69,65.5z M60.74,78.69
		c0,0.4,0,0.79,0,1.19c0,5.05,0,5.07-4.96,4.9c-0.84-0.03-2.34,0.53-2.03-1.16c0.24-1.28-1.31-3.27,1.28-3.77
		c0.77-0.15,1.27-0.59,1.21-1.41c-0.05-0.71-0.61-0.89-1.23-1.05c-2.6-0.66-1.07-2.72-1.25-4.12c-0.19-1.45,1.21-0.92,1.97-0.95
		c5-0.19,5-0.17,5,4.89C60.74,77.7,60.74,78.19,60.74,78.69z M66.62,82.7c0.01,1.4-0.16,2.15-1.88,2.16
		c-1.84,0.01-1.5-1.09-1.51-2.13c-0.01-3.08-0.04-6.15,0.01-9.23c0.04-2.42-0.91-3.7-3.49-3.68c-9.35,0.08-8.57-0.98-8.56,8.36
		c0.01,6.61,0,6.61-6.57,6.61c-2.58,0-5.17-0.15-7.74,0.05c-2.07,0.16-2.49-0.65-2.38-2.5c0.14-2.57,0.04-5.16,0.04-9.03
		c-2.04-6.15,1.56-11.12,7.08-15.44c2.72-2.13,5.13-4.68,7.54-7.18c1.12-1.16,1.75-0.97,2.79,0.05c4.39,4.31,8.83,8.56,13.3,12.79
		c0.93,0.88,1.4,1.78,1.38,3.1C66.56,71.98,66.57,77.34,66.62,82.7z M35.54,43.74c1.01-0.16,2.58-0.61,3.05,0.31
		c0.58,1.11,0.73,2.74-0.19,3.92c-0.95,1.23-2.13,2.28-3.79,4.01c0-2.47-0.1-4.05,0.04-5.6C34.73,45.46,33.89,44,35.54,43.74z
		 M33.61,56.31c5.11-4.99,10.16-10.04,15.25-15.05c0.79-0.78,1.42-2.02,2.83-0.56c7.14,7.42,14.34,14.79,21.53,22.18
		c-3.04,0.69-5.5-0.09-7.8-2.52c-4.02-4.24-8.46-8.09-12.58-12.24c-1.67-1.68-2.76-1.93-4.56-0.08c-4.22,4.33-8.69,8.42-13.05,12.61
		c-2.93,2.82-2.93,2.82-8.38,1.96C29.33,60.3,31.52,58.35,33.61,56.31z"/>
	<path class="st0" d="M74.94,90.7c-0.8,0.61-1.73,0.35-2.59,0.35c-14.5,0.02-29.01,0.02-43.51,0c-1.05,0-2.11,0.21-3.1-0.64
		c-1.24-1.08-2.04-0.39-2.15,1.01c-0.09,1.04-0.42,2.25,0.59,3.07c1.09,0.89,1.47-0.57,2.23-0.75c0.66-0.16,1.38-0.13,2.07-0.13
		c14.7-0.01,29.41-0.01,44.11,0c0.79,0,1.82-0.17,2.31,0.25c2.39,2.02,2.52,0.34,2.67-1.29C77.52,90.5,77.36,88.84,74.94,90.7z"/>
	<path class="st0" d="M74.17,87.3c1.19-0.25,3.7,0.13,1.25-2.63c-0.17-0.19-0.22-0.56-0.19-0.83c0.63-4.88-1.36-9.95,1.05-14.71
		c0.32-0.64,0.03-1.33-0.54-1.48c-1.23-0.32-2.66-0.65-3.71,0.16c-1.15,0.88-0.09,1.61,0.54,2.38c0.31,0.38,0.18,1.14,0.18,1.73
		c0.01,3.56,0.03,7.13-0.01,10.69c-0.01,0.75,0.24,1.53-0.38,2.25C70.59,86.92,72,87.23,74.17,87.3z"/>
	<path class="st0" d="M80.56,68.67c1.49-0.01,2.98,0,4.47,0c1.59,0,3.18,0,4.77,0c0.78,0,1.42-0.27,1.48-1.12
		c0.08-1.07-0.69-1.31-1.56-1.31c-3.08-0.01-6.16,0.01-9.23-0.01c-0.81,0-1.43,0.34-1.48,1.12C78.94,68.32,79.65,68.67,80.56,68.67z
		"/>
	<path class="st0" d="M89.73,91.08c-1.18-0.04-2.38-0.19-3.53,0.01c-1.59,0.28-4.51-1.07-4.5,1.12c0.01,2.66,3.04,0.76,4.33,1.36
		c1.46,0,2.64,0.03,3.82-0.01c0.73-0.03,1.39-0.33,1.44-1.17C91.36,91.33,90.57,91.11,89.73,91.08z"/>
	<path class="st0" d="M89.9,61.27c-2.35-0.03-4.71-0.04-7.07-0.01c-0.77,0.01-1.38,0.44-1.34,1.24c0.04,0.76,0.61,1.22,1.4,1.25
		c1.18,0.03,2.35,0.01,3.53,0.01c0,0,0-0.01,0-0.01c1.18,0,2.36,0.05,3.53-0.02c0.74-0.04,1.34-0.45,1.34-1.27
		C91.3,61.59,90.65,61.28,89.9,61.27z"/>
	<path class="st0" d="M87.74,74.87c-0.28-0.05-0.59-0.04-0.88,0c-1.08,0.13-2.77-0.46-2.78,1.26c-0.01,1.7,1.67,1.19,2.76,1.3
		c0.29,0.03,0.59,0,1.1,0c1.01-0.39,3.32,0.86,3.23-1.42C91.1,74.15,88.97,75.11,87.74,74.87z"/>
	<path class="st0" d="M87.69,79.73c-1.03,0.81-3.45-0.83-3.51,1.25c-0.08,2.44,2.39,1.21,3.72,1.31c1.17,0.09,3.3,0.85,3.28-1.19
		C91.15,79.02,88.99,80.32,87.69,79.73z"/>
	<path class="st0" d="M87.31,88.52c0.51,0,0.81,0.05,1.09-0.01c1.04-0.19,2.75,0.6,2.81-1.16c0.06-1.77-1.62-1.21-2.7-1.33
		c-0.29-0.03-0.6-0.07-0.88,0.01c-1.25,0.32-3.52-0.91-3.47,1.37C84.21,89.43,86.39,88.07,87.31,88.52z"/>
	<path class="st0" d="M79.57,77.41c0.82,0.01,1.65-0.17,1.72-1.16c0.09-1.23-0.87-1.32-1.75-1.38c-0.84,0.06-1.73,0.2-1.78,1.16
		C77.69,77.18,78.64,77.4,79.57,77.41z"/>
	<path class="st0" d="M79.23,79.92c-0.88,0-1.63,0.38-1.47,1.35c0.18,1.1,1.16,1.12,2.08,1.1c0.95-0.02,1.44-0.46,1.47-1.42
		C81.07,79.7,80.08,79.91,79.23,79.92z"/>
	<path class="st0" d="M48.25,75.98c0-0.5,0-0.99,0-1.49c0-4.66,0-4.66-4.64-4.66c-6.04,0-6.04,0-6.04,6.47c0,5.54,0,5.57,5.17,5.53
		C48.99,81.78,48.19,82.81,48.25,75.98z M42.79,79.51c-3.7,0.21-2.64-2.09-2.79-4.47c-0.21-1.51-0.15-2.75,2.74-2.89
		c3.82-0.18,2.79,2.13,3.01,4.13C46.02,78.66,45.36,79.36,42.79,79.51z"/>
	<path class="st0" d="M59.86,64.43c-6.33,0-12.65,0-18.98,0c-0.92,0-1.96,0.03-1.92,1.25c0.04,1.18,1.06,1.21,1.99,1.21
		c3.16-0.01,6.33,0,9.49,0s6.33-0.01,9.49,0c0.84,0,1.68-0.11,1.75-1.13C61.77,64.48,60.8,64.43,59.86,64.43z"/>
	<path class="st0" d="M45.84,60.42c1.49,0.01,2.98,0,4.46,0c1.49,0,2.98,0.02,4.46,0c0.72-0.01,1.43-0.14,1.46-1.08
		c0.02-0.84-0.47-1.34-1.26-1.35c-3.08-0.04-6.15-0.02-9.23,0c-0.8,0.01-1.35,0.5-1.34,1.28C44.42,60.1,45.06,60.42,45.84,60.42z"/>
</g>
</svg>
