<?xml version="1.0" encoding="utf-8"?>
<!-- Generator: Adobe Illustrator 26.0.1, SVG Export Plug-In . SVG Version: 6.00 Build 0)  -->
<svg version="1.1" id="Layer_1" xmlns="http://www.w3.org/2000/svg" xmlns:xlink="http://www.w3.org/1999/xlink" x="0px" y="0px"
	 viewBox="0 0 307.89 295.28" style="enable-background:new 0 0 307.89 295.28;" xml:space="preserve">
<style type="text/css">
	.st0{fill:#D70664;}
</style>
<g>
	<path class="st0" d="M303.83,95.45c-0.02-12.88-7.22-19.95-20.23-20.01c-8.98-0.05-17.97-0.01-27.76-0.01c0-2.44,0-4.24,0-6.04
		c0-15,0.02-30-0.01-45c-0.02-13.98-6.91-20.96-20.8-20.96c-54.17-0.02-108.34-0.02-162.5,0c-13.24,0-20.36,7.15-20.38,20.38
		c-0.02,15.33,0,30.67,0,46c0,1.75,0,3.5,0,5.63c-10.24,0-19.72-0.11-29.19,0.03C11.76,75.62,4.25,82.79,4.21,93.88
		c-0.13,39.67-0.12,79.34-0.01,119c0.03,10.71,7.66,18.05,18.47,18.21c8.33,0.12,16.67,0.01,25,0.05c1.42,0.01,2.85,0.21,4.48,0.34
		c0,13.8-0.07,27.13,0.02,40.45c0.07,11.69,7.34,19.15,19.04,19.16c55.17,0.08,110.34,0.08,165.5,0.02
		c11.69-0.01,18.98-7.4,19.1-19.12c0.11-11.67,0.03-23.33,0.03-35c0-1.78,0-3.56,0-5.87c10.01,0,19.47,0.07,28.92-0.02
		c11.68-0.11,19.05-7.47,19.07-19.15C303.88,173.12,303.88,134.29,303.83,95.45z M63.82,23.56c0.03-6.58,1.81-8.46,8.2-8.47
		c54.66-0.02,109.33-0.02,163.99,0c5.65,0,8.07,1.76,8.11,6.49c0.14,17.66,0.05,35.31,0.05,53.58c-60.31,0-120.05,0-180.37,0
		c0-7.21,0-14.16,0-21.11C63.81,43.89,63.78,33.72,63.82,23.56z M244.19,164.64c0,35,0.01,70.01,0,105.01
		c0,8.56-1.27,9.82-9.86,9.83c-53.67,0.01-107.34,0.01-161.02,0c-8.02,0-9.49-1.42-9.5-9.17c-0.01-35.5-0.01-71.01-0.01-106.51
		c0-1.31,0-2.62,0-4.48c60.32,0,119.95,0,180.38,0C244.19,161.14,244.19,162.89,244.19,164.64z M292.18,210.86
		c0,6.83-1.75,8.57-8.56,8.59c-8.5,0.03-17-0.01-25.5-0.03c-0.49,0-0.97-0.16-2.05-0.35c0-19.89,0-39.51,0-59.97
		c5.58,0,11.17-0.02,16.75,0.01c3.61,0.02,6.32-1.37,6.82-5.15c0.47-3.53-1.47-5.79-4.96-6.23c-2.8-0.35-5.65-0.27-8.48-0.27
		c-75.83-0.01-151.66-0.01-227.5-0.01c-1.17,0-2.33,0-3.5,0.04c-3.97,0.14-7.09,1.61-6.88,6.08c0.19,4.07,3.1,5.56,6.94,5.54
		c5.45-0.03,10.91-0.01,16.62-0.01c0,20.3,0,40.03,0,60.28c-10.37,0-20.5,0.29-30.58-0.25c-1.9-0.1-3.8-3.35-5.35-5.41
		c-0.57-0.75-0.13-2.27-0.13-3.43c0-38-0.01-76,0-114c0-7.62,1.52-9.18,8.97-9.18c86.17-0.01,172.33-0.01,258.5,0
		c7.24,0,8.91,1.64,8.91,8.76C292.21,134.19,292.2,172.52,292.18,210.86z"/>
	<path class="st0" d="M261.48,111.48c-3.66-0.11-7.32-0.02-10.99-0.03c-4,0-7.99-0.11-11.99,0.03c-3.65,0.12-6.1,1.98-6.11,5.81
		c-0.01,3.89,2.55,5.68,6.16,5.74c7.66,0.12,15.32,0.13,22.97-0.02c3.58-0.07,6.17-1.86,6.12-5.78
		C267.58,113.4,265.15,111.59,261.48,111.48z"/>
	<path class="st0" d="M95.02,261.1c1,0.05,2,0.02,3,0.02c37.3,0,74.6,0,111.89-0.02c1.66,0,3.74,0.45,4.89-0.36
		c1.93-1.36,4.5-3.56,4.51-5.41c0.01-1.87-2.53-4.1-4.44-5.48c-1.13-0.82-3.22-0.37-4.88-0.38c-18.48-0.02-36.96-0.01-55.45-0.01
		c-9.99,0-19.98,0-29.97,0c-9.82,0-19.65-0.04-29.47,0.03c-3.75,0.03-6.67,1.53-6.7,5.75C88.36,259.48,91.26,260.91,95.02,261.1z"/>
	<path class="st0" d="M92.22,224.47c1.31,0.9,3.53,0.61,5.34,0.61c18.82,0.03,37.65,0.02,56.47,0.02s37.65,0.01,56.47,0
		c6.42,0,9.26-1.82,9.24-5.84c-0.02-3.99-2.88-5.77-9.3-5.8c-0.17,0-0.33,0-0.5,0c-37.31,0-74.63,0-111.94,0.03
		c-1.98,0-4.35-0.3-5.84,0.64c-1.7,1.09-3.6,3.41-3.6,5.19C88.58,221.09,90.53,223.31,92.22,224.47z"/>
	<path class="st0" d="M92.39,188.53c1.34,0.88,3.54,0.55,5.36,0.56c18.81,0.03,37.63,0.02,56.44,0.02c18.65,0,37.3,0.01,55.94-0.01
		c1.66,0,3.71,0.41,4.89-0.38c1.85-1.25,4.36-3.43,4.28-5.1c-0.1-2.01-2.35-4.25-4.2-5.7c-1.08-0.85-3.21-0.44-4.86-0.44
		c-37.46-0.02-74.92-0.02-112.39,0.01c-1.82,0-4.08-0.36-5.35,0.55c-1.78,1.28-3.78,3.53-3.89,5.47
		C88.53,185.15,90.67,187.4,92.39,188.53z"/>
</g>
</svg>
