<?xml version="1.0" encoding="utf-8"?>
<!-- Generator: Adobe Illustrator 26.0.1, SVG Export Plug-In . SVG Version: 6.00 Build 0)  -->
<svg version="1.1" id="Layer_1" xmlns="http://www.w3.org/2000/svg" xmlns:xlink="http://www.w3.org/1999/xlink" x="0px" y="0px"
	 viewBox="0 0 120 120" style="enable-background:new 0 0 120 120;" xml:space="preserve">
<style type="text/css">
	.st0{fill:#D70664;}
</style>
<g>
	<path class="st0" d="M109.06,1.79c-32.69,0-65.38,0-98.07,0c-6.64,0-9.19,2.58-9.19,9.28c0,24.19,0,48.39,0,72.58
		c0,6.49,2.56,9.08,9.07,9.1c9.5,0.03,18.99,0.01,28.49,0.01c1.05,0,2.11,0,3.58,0c-1.31,4.43-2.54,8.32-3.57,12.25
		c-0.46,1.76-1.26,2.51-3.11,2.33c-1.17-0.11-2.44-0.06-3.55,0.28c-2.46,0.74-3.89,3.33-3.5,5.93c0.43,2.88,2.61,4.63,6.02,4.63
		c15.1,0.03,30.19,0.01,45.29,0.01c1.7,0,3.4,0.08,5.1-0.03c3.1-0.2,5.25-2.5,5.24-5.45c-0.01-3.01-2.13-5.19-5.28-5.38
		c-0.9-0.06-1.83,0.12-2.69-0.07c-0.66-0.15-1.62-0.58-1.78-1.09c-1.39-4.25-2.62-8.55-4.07-13.4c1.7,0,2.78,0,3.86,0
		c9.4,0,18.8,0.01,28.19-0.01c6.51-0.01,9.11-2.61,9.11-9.06c0.01-24.29,0.01-48.59,0-72.88C118.2,4.36,115.6,1.8,109.06,1.79z
		 M83.95,110.97c1.35,0,3.12-0.34,3.13,1.76c0,2.05-1.71,1.83-3.1,1.83c-7.99,0.01-15.98,0-23.97,0c-7.99,0-15.98,0.07-23.96-0.08
		c-1.07-0.02-2.94-1.03-3.02-1.74c-0.24-2.04,1.64-1.77,3-1.77C51.99,110.95,67.97,110.95,83.95,110.97z M77.48,107.17
		c-11.75,0-23.19,0-34.97,0c1.35-4.52,2.58-8.91,4.01-13.22c0.19-0.56,1.35-1.13,2.07-1.13c7.58-0.08,15.16-0.09,22.74,0.01
		c0.77,0.01,1.99,0.71,2.21,1.35C74.96,98.4,76.15,102.7,77.48,107.17z M108.74,89.05c-32.4,0.01-64.8,0.01-97.19,0
		c-5.61,0-6.54-1.09-5.88-7.16c36.29,0,72.36,0,108.4,0C115.43,87.15,114.01,89.05,108.74,89.05z M114.44,77.99
		c-36.35,0-72.42,0-109,0c0-0.97,0-1.91,0-2.85c0-21.4,0-42.79,0-64.19c0-4.41,1.08-5.51,5.44-5.51c32.8,0,65.59,0,98.39,0
		c3.98,0,5.28,1.13,5.28,4.75c0.02,22,0.01,43.99,0,65.99C114.55,76.66,114.49,77.15,114.44,77.99z"/>
	<path class="st0" d="M94.56,43.68c2.11-0.03,3.89,0.04,5.48,2.03c1.86,2.34,5.37,2.05,7.47-0.08c2.09-2.11,2.11-5.43,0.06-7.57
		c-1.99-2.09-5.82-2.5-7.48-0.2c-1.72,2.38-3.77,2.16-6.02,2.16c-2.1,0-4.2,0-6.3,0c-4.61,0-5.06-0.64-3.55-5.44
		c3.52,0.33,6.66,0.16,8.21-4.2c1.47-4.14,4.13-4.36,7.24-1.21c2.18,2.21,5.66,2.26,7.8,0.12c2.09-2.09,2.15-5.41,0.14-7.57
		c-2.08-2.24-5.75-2.47-7.72-0.08c-1.33,1.62-2.7,2.23-4.59,1.92c-2.86-0.47-4.54,0.78-5.41,3.44c-0.25,0.75-0.69,1.44-1.08,2.14
		c-0.96,1.76-4.04,2.42-5.62,1.28c-2-1.43-4.05-2.78-6.75-4.63c-0.08-1.37-0.83-3.75,1.93-5.75c2.34-1.7,2.08-5.41,0.04-7.5
		c-2.1-2.15-5.36-2.24-7.57-0.21c-2.18,2-2.66,5.71-0.34,7.46c2.78,2.1,2.17,4.51,1.99,7.2c-3.62,0-7.04,0-10.6,0
		c-0.02-2.71-0.67-5.09,2.03-7.09c2.36-1.74,1.98-5.4-0.14-7.46c-2.16-2.1-5.4-2.1-7.57-0.01c-2.12,2.04-2.49,5.73-0.16,7.47
		c2.78,2.09,2.17,4.48,1.9,7.05c-3.61,0-7.04,0-10.51,0c-0.1-2.78-0.62-5.15,2.04-7.17c2.33-1.77,1.85-5.44-0.34-7.45
		c-2.21-2.03-5.46-1.94-7.56,0.21c-2.04,2.08-2.29,5.82,0.05,7.5c2.78,1.99,2,4.37,1.92,5.76c-2.69,1.83-4.71,3.23-6.77,4.57
		c-0.39,0.26-0.9,0.41-1.37,0.47c-2.14,0.28-3.91-0.05-4.68-2.51c-1.05-3.35-2.94-5.48-6.96-4.87c-0.97,0.15-2.37-0.69-3.17-1.49
		c-2.89-2.91-7.3-2.52-9.09,0.96c-1.25,2.41-0.54,5.34,1.68,6.94c2.33,1.68,5.41,1.21,7.51-1.14c1.78-1.99,5.11-2.26,5.94-0.24
		c1.78,4.3,3.95,7.67,9.44,5.93c0,2.18,0,3.8,0,5.6c-4.08,0-7.87-0.06-11.66,0.03c-1.69,0.04-2.89-0.26-4.05-1.77
		c-1.9-2.47-5.53-2.5-7.73-0.45c-2.27,2.11-2.35,5.59-0.2,7.78c2.27,2.31,5.64,2.19,7.98-0.24c0.59-0.61,1.28-1.57,1.95-1.59
		c4.56-0.14,9.13-0.07,13.73-0.07c0,2,0,3.62,0,5.67c-4.2-1.01-7.1-0.17-8.67,4.13c-1.39,3.82-4.2,4.03-7.07,1
		c-2.15-2.26-5.61-2.39-7.79-0.29c-2.23,2.16-2.27,5.59-0.07,7.79c2.18,2.18,5.75,2.29,7.71-0.17c1.24-1.56,2.53-2.11,4.3-1.83
		c2.93,0.46,4.78-0.66,5.64-3.51c0.23-0.75,0.68-1.44,1.07-2.14c0.91-1.65,4.13-2.21,5.63-1.11c1.97,1.44,4.03,2.75,6.69,4.56
		c0.42,2.85,0.42,2.85-2.19,5.89c-1.9,2.22-1.72,5.61,0.42,7.58c2.06,1.9,5.3,1.89,7.36-0.02c2.2-2.05,2.7-5.69,0.34-7.45
		c-2.81-2.1-2.08-4.54-2.04-7.26c3.61,0,7.05,0,10.65,0c0.04,2.75,0.69,5.19-2.11,7.26c-2.32,1.71-1.85,5.44,0.31,7.45
		c2.13,1.98,5.54,1.9,7.58-0.19c2.07-2.11,2.33-5.75-0.03-7.48c-2.83-2.08-2-4.5-1.81-6.96c3.65,0,7.09,0,10.49,0
		c0.25,4.06,0.25,4.06-2.25,7.26c-1.78,2.27-1.55,5.37,0.54,7.34c2.13,2,5.53,1.95,7.58-0.12c1.96-1.98,2.38-5.62,0.19-7.26
		c-2.74-2.05-2.35-4.47-2.21-6.1c2.74-1.76,4.63-3,6.55-4.19c0.55-0.34,1.18-0.62,1.8-0.78c2.96-0.8,4.13,1.11,4.94,3.4
		c0.97,2.74,2.54,4.44,5.74,3.83c1.94-0.36,3.34,0.31,4.54,2c0.6,0.84,2,1.33,3.12,1.52c2.58,0.44,4.9-1.2,5.74-3.76
		c0.8-2.44-0.29-5.14-2.58-6.39c-2.3-1.25-4.91-0.74-6.78,1.32c-2.49,2.75-5.55,2.54-6.76-0.87c-1.43-4.04-3.95-5.38-7.93-4.76
		c-0.25,0.04-0.54-0.16-0.92-0.28c0-1.65,0-3.27,0-5.1C87.58,43.7,91.07,43.74,94.56,43.68z M103.76,40.24
		c0.61-0.02,1.25,0.84,2.27,1.61c-1.06,0.78-1.85,1.74-2.32,1.61c-0.7-0.2-1.19-1.17-1.77-1.82
		C102.55,41.14,103.14,40.26,103.76,40.24z M103.84,23.85c0.62,0.03,1.21,0.93,2.18,1.78c-1.1,0.67-1.92,1.54-2.41,1.39
		c-0.68-0.22-1.12-1.2-1.66-1.86C102.59,24.69,103.24,23.82,103.84,23.85z M16.28,27.02c-0.63-0.1-1.14-1.01-1.7-1.57
		c0.66-0.58,1.25-1.46,1.99-1.61c0.46-0.1,1.15,0.92,2.18,1.83C17.6,26.35,16.87,27.12,16.28,27.02z M16.56,43.47
		c-0.75-0.18-1.33-1.09-1.98-1.69c0.57-0.55,1.1-1.45,1.74-1.55c0.59-0.08,1.3,0.7,2.42,1.39C17.72,42.53,17,43.57,16.56,43.47z
		 M16.52,60.62c-0.89-1.05-1.91-1.77-1.81-2.25c0.15-0.73,1.09-1.29,1.7-1.93c0.55,0.57,1.47,1.1,1.54,1.72
		C18.01,58.78,17.22,59.49,16.52,60.62z M74.55,14.59c0.56,0.57,1.47,1.08,1.58,1.72c0.09,0.58-0.69,1.31-1.37,2.43
		c-0.92-1.01-1.97-1.71-1.86-2.15C73.06,15.84,73.95,15.25,74.55,14.59z M60.09,14.7c0.47-0.13,1.26,0.84,2.37,1.66
		c-1.1,0.78-1.76,1.62-2.37,1.58c-0.64-0.04-1.23-0.92-1.84-1.43C58.85,15.87,59.36,14.91,60.09,14.7z M45.46,14.71
		c0.46-0.16,1.29,0.78,2.39,1.52c-0.98,0.81-1.58,1.7-2.19,1.71c-0.62,0.01-1.26-0.85-1.89-1.32
		C44.32,15.94,44.76,14.94,45.46,14.71z M45.37,69.71c-0.75-1.12-1.57-1.81-1.51-2.4c0.06-0.65,0.95-1.21,1.47-1.81
		c0.63,0.62,1.56,1.15,1.76,1.89C47.22,67.85,46.23,68.61,45.37,69.71z M62.44,67.46c-1.14,0.69-1.87,1.5-2.48,1.41
		c-0.63-0.09-1.15-1.03-1.71-1.6c0.65-0.59,1.24-1.52,1.98-1.66C60.71,65.52,61.42,66.56,62.44,67.46z M76.94,67.09
		c-1.03,0.88-1.75,1.89-2.2,1.78c-0.75-0.18-1.32-1.08-1.97-1.67c0.58-0.57,1.1-1.5,1.75-1.6C75.1,65.52,75.81,66.36,76.94,67.09z
		 M79.95,49.8c0.04,2.22-0.89,3-3.05,2.98c-5.7-0.08-11.39-0.03-17.09-0.03c-5.5,0-10.99-0.09-16.49,0.04
		c-2.48,0.06-3.37-0.87-3.31-3.33c0.13-5.09,0.11-10.19,0.01-15.29c-0.05-2.25,0.66-3.29,3.06-3.27
		c11.29,0.07,22.58,0.06,33.88,0.01c2.18-0.01,3.03,0.81,2.99,3.01C79.86,39.2,79.86,44.5,79.95,49.8z M103.46,55.71
		c0.9,1.08,1.91,1.8,1.81,2.27c-0.16,0.74-1.09,1.3-1.69,1.94c-0.55-0.58-1.45-1.11-1.53-1.75
		C101.97,57.58,102.76,56.86,103.46,55.71z"/>
</g>
</svg>
