<?xml version="1.0" encoding="utf-8"?>
<!-- Generator: Adobe Illustrator 26.0.1, SVG Export Plug-In . SVG Version: 6.00 Build 0)  -->
<svg version="1.1" id="Layer_1" xmlns="http://www.w3.org/2000/svg" xmlns:xlink="http://www.w3.org/1999/xlink" x="0px" y="0px"
	 viewBox="0 0 486.38 379.91" style="enable-background:new 0 0 486.38 379.91;" xml:space="preserve">
<style type="text/css">
	.st0{fill:#D70664;}
</style>
<g>
	<path class="st0" d="M482.19,123.85c-0.01-7.09-0.52-14.19-1.11-21.25c-0.37-4.48-2.67-6.48-7.16-7.05
		c-1.09-0.14-2.19-0.19-3.29-0.2c-19.99-0.24-39.99-0.65-59.98-0.67c-81.09-0.04-162.19,0.03-243.28,0.09
		c-7.89,0.01-12.05,4.03-12.26,11.9c-0.24,8.99-0.3,17.99-0.35,26.99c-0.03,5.46-0.74,4.79,4.94,5c2.93,0.11,3.68-0.84,3.65-3.7
		c-0.1-9.1,0-18.2,0.22-27.29c0.09-3.81,0.7-4.24,4.54-4.32c9.9-0.18,19.8-0.41,29.69-0.42c89.99-0.11,179.99-0.16,269.98-0.32
		c4.64-0.01,5.63,0.86,5.99,5.7c0.41,5.68,0.57,11.39,0.58,17.08c0.08,57.7,0.12,115.39,0.11,173.09c0,7.2-0.26,14.4-0.53,21.59
		c-0.17,4.74-1.06,5.6-5.68,5.83c-4.99,0.25-9.99,0.53-14.98,0.54c-76.89,0.09-153.79,0.13-230.68,0.18c-1.37,0-2.73,0-4.2,0
		c0,3.08,0,5.72,0,8.7c17.95,0,35.7,0,53.47,0c0,5.78,0,11.21,0,16.89c-1.97,0-3.66-0.06-5.34,0.01c-4.29,0.18-8.59,0.26-12.85,0.7
		c-3.42,0.36-5.9,2.47-6.3,5.9c-0.64,5.51-0.78,11.07-1.14,16.81c48.71,0,96.75,0,144.98,0c0-3.81,0.17-7.49-0.04-11.16
		c-0.49-8.52-3.56-11.53-12.09-12.11c-1.99-0.14-4-0.13-6-0.15c-2.58-0.02-5.16-0.01-7.98-0.01c0-5.72,0-11.15,0-16.91
		c1.26,0,2.34,0.01,3.43,0c27.7-0.15,55.39-0.25,83.09-0.5c7.49-0.07,15-0.34,22.45-0.98c4.59-0.39,6.59-2.63,7-7.21
		c0.58-6.36,1.06-12.76,1.07-19.15C482.24,246.23,482.26,185.04,482.19,123.85z M280.85,335.45c1.11-0.08,2.16-0.23,3.21-0.23
		c23.07-0.01,46.13,0.02,69.2-0.06c2.63-0.01,3.73,0.5,3.52,3.45c-0.3,4.35-0.08,8.75-0.08,13.39c-25.83,0-50.74,0-75.85,0
		C280.85,346.48,280.85,341.14,280.85,335.45z M379.58,361.21c3.28,0.01,3.57,0.61,2.84,5.86c-42.27,0-84.58,0-127.11,0
		c0-2.06,0-4,0-6.15c0.78-0.07,1.54-0.21,2.3-0.21C298.26,360.87,338.92,361.03,379.58,361.21z"/>
	<path class="st0" d="M463.29,279.97c-0.01-12.5-0.03-24.99-0.03-37.49c0-41.69-0.03-83.38,0.06-125.07
		c0.01-2.75-0.73-3.53-3.49-3.51c-16.3,0.13-32.59,0.07-48.89,0.07c-52.19,0-104.38-0.01-156.57-0.01
		c-25.59,0-51.19,0.02-76.78-0.05c-2.36-0.01-3.09,0.66-3.03,3.04c0.16,6.09,0.03,12.2,0.04,18.29c0,1.05,0.11,2.1,0.19,3.35
		c1.74,0,3.14,0,4.53,0c3.86,0,3.86,0,3.86-3.94c0-3.97,0-7.94,0-12.15c1.55,0,2.64,0,3.73,0c88.08,0,176.16,0.01,264.25-0.06
		c2.89,0,3.66,0.77,3.66,3.65c-0.08,48.89-0.05,97.78-0.05,146.67c0,0.86-0.14,1.72-0.24,2.92c-78.86,0-157.47,0-236.11,0
		c0,2.94,0,5.5,0,8.13c81.67,0,163.16,0,244.9,0C463.29,282.35,463.29,281.16,463.29,279.97z"/>
	<path class="st0" d="M78.89,215.14c-3.12-2.33-6.46-4.38-9.54-6.76c-1.87-1.45-3.24-1.55-5.21-0.06c-3.98,3.02-8.15,5.78-12.34,8.5
		c-0.74,0.48-2.38,0.73-2.84,0.29c-4.95-4.72-9.76-9.6-14.72-14.56c4.18-5.56,7.91-10.62,11.76-15.59c1.04-1.34,1.37-2.4,0.53-4.02
		c-2.56-4.98-5.01-10.01-7.37-15.09c-0.75-1.62-1.68-2.13-3.46-1.99c-5.08,0.39-10.18,0.57-15.27,0.83
		c-1.83,0.09-3.02-0.55-3.43-2.52c-1.11-5.38-2.28-10.75-3.53-16.09c-0.48-2.04,0.14-3.15,2.08-3.91c4.83-1.9,9.57-4.06,14.43-5.89
		c1.9-0.71,2.61-1.77,2.74-3.7c0.35-4.98,0.67-9.99,1.4-14.92c0.41-2.8-0.48-4.34-2.89-5.45c-4.36-2.01-8.63-4.19-13.02-6.14
		c-1.78-0.79-2.38-1.61-1.71-3.62c1.62-4.83,3.14-9.7,4.39-14.64c0.8-3.14,2.35-4.15,5.54-3.66c5.03,0.77,10.12,1.15,15.19,1.73
		c2.1,0.24,3.57-0.46,4.78-2.28c2.75-4.17,5.58-8.29,8.59-12.26c1.26-1.66,1.24-2.75,0.06-4.43c-3.09-4.42-6.02-8.95-8.83-13.55
		c-0.49-0.8-0.56-2.61-0.02-3.14c4.72-4.71,9.63-9.23,14.56-13.89c5.52,4.28,10.77,8.27,15.91,12.38c1.35,1.08,2.42,1.32,4.02,0.53
		c4.76-2.32,9.58-4.53,14.42-6.66c1.52-0.67,2.05-1.56,1.94-3.21c-0.37-5.59-0.49-11.19-0.94-16.77c-0.17-2.09,0.28-3.06,2.44-3.52
		c4.98-1.05,9.97-2.16,14.84-3.63c3-0.91,4.44,0.05,5.52,2.71c1.99,4.91,4.22,9.72,6.16,14.65c0.82,2.07,2.13,2.99,4.24,3.12
		c4.99,0.32,9.98,0.57,14.95,1.07c2.21,0.23,3.15-0.66,4.04-2.53c2.27-4.78,4.8-9.43,7.2-14.15c0.81-1.59,1.84-2.03,3.64-1.45
		c5.04,1.61,10.14,3.08,15.24,4.49c2.17,0.6,3.1,1.56,2.72,4.01c-0.84,5.33-1.35,10.71-2.03,16.06c-0.28,2.22,0.43,3.78,2.42,4.99
		c2.98,1.82,5.81,3.89,8.71,5.86c5.86,3.97,5.87,4,11.74,0.09c3.72-2.47,7.37-5.03,10.54-7.2c5.53,5.45,10.76,10.6,16.11,15.88
		c-3.04,3.95-6.19,8.04-9.47,12.29c1.25,1.01,2.39,1.81,3.38,2.77c2.03,1.94,3.67,1.78,5.4-0.49c3.51-4.61,7.11-9.16,10.81-13.63
		c1.26-1.53,1.01-2.42-0.3-3.73c-5.09-5.09-10.04-10.32-15.09-15.44c-3.06-3.1-6.22-6.11-9.46-9.29c-4.22,2.99-8.37,5.93-12.52,8.87
		c-5.09,3.59-5.06,3.55-10.18-0.06c-2.25-1.58-3.29-3.34-2.81-6.29c0.92-5.72,1.39-11.5,2.09-17.26c0.21-1.77-0.4-2.75-2.19-3.28
		c-10.07-2.94-20.13-5.94-30.16-9c-1.77-0.54-2.8-0.15-3.57,1.54c-1.75,3.82-4.06,7.44-5.31,11.4c-1.66,5.26-4.62,7.22-10.06,6.5
		c-2.21-0.29-3.29-0.84-4.11-2.91c-2.28-5.76-4.83-11.41-7.25-17.11c-0.98-2.32-2.47-2.96-4.99-2.33
		c-9.78,2.47-19.6,4.81-29.44,7.08c-1.83,0.42-2.49,1.24-2.34,3.06c0.38,4.58,0.68,9.17,0.99,13.76c0.44,6.53,0.38,6.43-5.62,9.13
		c-2.22,1-3.74,0.82-5.64-0.72c-5.42-4.4-11.01-8.57-16.72-12.97c-6.37,6.07-12.59,11.98-18.78,17.93c-2.23,2.15-4.5,4.29-6.48,6.65
		c-0.5,0.6-0.39,2.28,0.1,3.05c2.34,3.72,4.91,7.29,7.39,10.93c3.73,5.47,3.67,5.43-0.32,10.87c-1.38,1.88-2.81,2.74-5.27,2.37
		c-5.83-0.89-11.72-1.36-17.54-2.26c-2.43-0.38-3.39,0.43-4.01,2.65c-2.69,9.62-5.44,19.23-8.33,28.8
		c-0.73,2.42-0.08,3.76,2.04,4.81c4.3,2.12,8.63,4.21,12.82,6.53c1.3,0.72,2.73,1.98,3.18,3.3c1.4,4.18-0.86,8.75-4.95,10.53
		c-4.95,2.16-9.93,4.22-14.92,6.27c-1.64,0.67-2.29,1.52-1.75,3.42c0.87,3.07,1.38,6.24,2.12,9.36c1.92,8.05,3.87,16.1,5.85,24.29
		c1.12-0.05,2-0.05,2.88-0.14c5.37-0.56,10.74-1.09,16.1-1.74c1.71-0.21,2.7,0.17,3.56,1.81c3.91,7.45,3.97,7.42-1.21,14.11
		c-0.86,1.11-1.73,2.2-2.58,3.31c-2.29,2.99-4.57,5.98-6.97,9.13c8.04,8.39,15.87,16.52,23.66,24.69c1.36,1.43,2.69,1.1,4.02,0.23
		c3.77-2.45,7.7-4.71,11.18-7.53c3.26-2.65,6.04-3.32,9.27-0.21c0.91,0.88,2.2,1.37,3.3,2.05c1.57,0.97,2.92,2.02,4.41-0.39
		C81.2,217.89,81.43,217.03,78.89,215.14z"/>
	<path class="st0" d="M199.84,280.26c-2.01-0.04-2.56,0.71-2.54,2.63c0.08,8.2,0.11,16.4,0.03,24.6
		c-0.14,13.59-0.28,27.19-0.63,40.78c-0.18,6.98-2.23,10.93-11.87,11.74c-9.54,0.8-19.18,0.61-28.77,0.53
		c-15.3-0.13-30.59-0.4-45.88-0.89c-5.77-0.19-9.7-4.35-10.35-10.13c-0.31-2.78-0.43-5.59-0.45-8.38c-0.17-23.4-0.44-46.8-0.39-70.2
		c0.07-31.7,0.37-63.39,0.66-95.09c0.03-2.87,0.44-5.8,1.09-8.6c1-4.31,5.24-7.47,9.51-7.49c17.7-0.09,35.4-0.22,53.1-0.25
		c7.4-0.01,14.81-0.06,22.19,0.35c7.06,0.4,10.75,3.92,11.2,10.89c0.53,8.17,0.44,16.38,0.63,24.57c0.03,1.15,0.1,2.31,0.16,3.56
		c2.88,0,5.43,0,7.94,0c0-9.47,0.19-18.75-0.05-28.01c-0.26-9.95-7.51-19.45-19.88-19.45c-26.09,0-52.18,0.16-78.27,0.41
		c-1.96,0.02-4.13,0.94-5.81,2.03c-6.78,4.41-10.55,10.36-10.53,18.92c0.09,35.8-0.28,71.59-0.21,107.39
		c0.05,23.5,0.58,46.99,0.84,70.49c0.07,6.69,3.63,11.17,8.77,14.82c4,2.84,8.59,3.03,13.21,3.03c24.09,0.01,48.18,0.04,72.27-0.03
		c5.93-0.02,10.62-2.6,14.62-7.07c3.9-4.36,5.11-9.31,5.13-14.88c0.08-20.2,0.25-40.4,0.3-60.6
		C205.85,279.58,207.24,280.41,199.84,280.26z"/>
	<path class="st0" d="M191.79,324.39c-0.09-13.29-0.03-26.59-0.02-39.89c0-1.27,0-2.53,0-3.93c-3.06,0-5.68,0-8.64,0
		c0,12.88,0,25.54,0,38.57c-1.32,0-2.29,0-3.26,0c-21.09-0.01-42.19-0.08-63.28,0.03c-2.83,0.01-3.47-0.85-3.47-3.54
		c0.08-40.19,0.05-80.37,0.06-120.56c0-1.07,0.09-2.14,0.14-3.34c23.36,0,46.48,0,69.93,0c0,5.99,0,11.75,0,17.79
		c2.81-0.22,5.26-0.4,8.1-0.62c0-8.69,0-17.12,0-25.75c-28.71,0-57.45,0-86.52,0c-0.07,1.09-0.17,1.88-0.17,2.66
		c-0.01,46.29,0.01,92.57-0.05,138.86c0,2.42,0.78,3.02,3.09,3.01c26.99-0.07,53.98-0.09,80.97-0.01
		C191.29,327.67,191.81,326.77,191.79,324.39z"/>
	<path class="st0" d="M395.19,138.49c-48.38,0.1-96.77,0.07-145.15,0.08c-1.07,0-2.13,0.09-3.28,0.14c0,13.29,0,26.31,0,39.46
		c50.7,0,101.15,0,152.2,0c0-1.55,0-2.82,0-4.09c0-10.6-0.13-21.2,0.08-31.79C399.09,139.19,398.19,138.49,395.19,138.49z
		 M390.28,169.55c-1.02,0.08-1.89,0.2-2.77,0.2c-42.98,0-85.96-0.03-128.94,0.04c-2.66,0-3.67-0.59-3.57-3.46
		c0.22-6.27,0.07-12.55,0.07-19.04c45.19,0,90.1,0,135.21,0C390.28,154.84,390.28,162.1,390.28,169.55z"/>
	<path class="st0" d="M169.9,81.34c0.73,0.5,2.18,1.1,2.56,0.78c1.57-1.31,3.32-2.78,4.02-4.57c0.31-0.79-1.48-2.86-2.75-3.73
		c-16.26-11.25-34.26-16.27-53.93-13.58c-52.97,7.25-83.21,66.1-53.24,113.36c2.83,4.46,5.89,8.76,10.1,11.86
		c1.86-1.67,3.55-3.2,5.52-4.98c-2.42-3.22-4.58-6.08-6.72-8.95c-12.35-16.6-15.14-35.42-9.84-54.71
		C77.02,75.33,126.81,51.5,169.9,81.34z"/>
	<path class="st0" d="M117.89,198.9c0.03,11.39,0.02,22.79,0.05,34.18c0,0.86,0.14,1.72,0.22,2.6c19.86,0,39.48,0,59.18,0
		c0-13.19,0-26.13,0-39.16c-0.54-0.11-0.92-0.26-1.29-0.26c-18.69-0.02-37.38-0.01-56.07-0.08
		C117.81,196.17,117.89,197.42,117.89,198.9z M126.45,204.86c14.29,0,28.14,0,42.54,0c0,2.04,0,4.08,0,6.12
		c0,4.59-0.06,9.19,0.03,13.78c0.04,1.84-0.4,2.7-2.47,2.69c-12.58-0.08-25.16-0.02-37.74-0.14c-0.79-0.01-2.24-1.12-2.26-1.75
		C126.39,218.78,126.45,212,126.45,204.86z"/>
	<path class="st0" d="M275.82,253.53c0-2.69,0-5.17,0-7.98c-52.43,0-104.55,0-157.03,0c0,1.57,0,2.94,0,4.31
		c0,3.89,0,3.96,3.84,3.96c50.28,0.01,100.55,0.01,150.83-0.01C274.22,253.82,274.98,253.64,275.82,253.53z"/>
	<path class="st0" d="M398.74,186.03c-15.41,0-30.62,0-45.99,0c0,15.41,0,30.55,0,45.96c15.51,0,30.65,0,45.99,0
		C398.74,216.58,398.74,201.36,398.74,186.03z M390.29,223.36c-9.59,0-19.18,0-28.99,0c0-9.52,0-19.03,0-28.81
		c9.77,0,19.3,0,28.99,0C390.29,204.18,390.29,213.63,390.29,223.36z"/>
	<path class="st0" d="M187.43,233.42c50.38,0,100.25,0,150.44,0c0.17-2.55,0.34-4.99,0.51-7.61c-50.78,0-101.01,0-151.47,0
		C187.11,228.54,187.27,230.96,187.43,233.42z"/>
	<path class="st0" d="M250.67,212.13c1.01,0.06,1.89,0.16,2.77,0.16c11,0.02,22,0.03,33,0.03c16.3,0,32.6-0.04,48.89,0.04
		c2.29,0.01,3.44-0.55,3.05-3c-0.06-0.39,0-0.8-0.01-1.2c-0.06-4.73,0.61-4.41-4.28-4.41c-25.6-0.01-51.19,0-76.79-0.01
		C249.61,203.75,249.61,203.74,250.67,212.13z"/>
	<path class="st0" d="M338.44,189.87c-29.51,0-58.67,0-87.84,0c0,2.84,0,5.4,0,7.82c29.15,0,58.07,0,87.29,0
		C338.08,194.87,338.26,192.44,338.44,189.87z"/>
	<path class="st0" d="M299.07,304.45c0.05,8.27,6.24,14.25,14.68,14.21c8.53-0.04,14.66-5.96,14.71-14.19
		c0.04-7.69-6.85-14.51-14.69-14.52C305.97,289.93,299.02,296.78,299.07,304.45z M319.67,304.58c0.08,3.55-2.09,5.77-5.68,5.8
		c-3.59,0.03-6.21-2.18-6.31-5.33c-0.1-3.49,2.69-6.6,5.92-6.58C316.95,298.5,319.6,301.17,319.67,304.58z"/>
	<path class="st0" d="M118.9,285.78c19.09,0,37.82,0,56.6,0c0-2.8,0-5.36,0-8c-18.96,0-37.75,0-56.6,0
		C118.9,280.58,118.9,283.06,118.9,285.78z"/>
	<path class="st0" d="M135.44,342.17c-0.11,8.58,4.93,14.5,12.5,14.67c7.66,0.18,13.46-5.68,13.56-13.69
		c0.09-7.16-6.07-13.43-13.24-13.46C141.26,329.65,135.53,335.24,135.44,342.17z M152.88,343.29c-0.06,2.88-2.43,5.19-5.17,5.05
		c-2.36-0.12-4.04-2.26-3.97-5.05c0.08-2.84,2.3-5.26,4.73-5.14C150.84,338.26,152.93,340.7,152.88,343.29z"/>
	<path class="st0" d="M257.89,63.86c1,0,2.01,0.1,2.99-0.02c2.33-0.28,2.94,0.79,2.81,2.95c-0.16,2.73-0.04,5.48-0.04,8.18
		c3.09,0,5.63,0,8.49,0c0-3.67,0-7.13,0-10.84c2.07-0.15,3.84-0.32,5.6-0.41c6.99-0.36,6.99-0.35,6.57-7.39
		c-0.01-0.18-0.16-0.36-0.38-0.83c-1.51-0.09-3.17-0.24-4.84-0.28c-6.53-0.17-6.46-0.16-6.82-6.55c-0.35-6.2,1.18-5.57-6.27-5.61
		c-1.86-0.01-2.44,0.69-2.38,2.46c0.1,3.16,0.03,6.33,0.03,9.87c-3.97,0-7.52,0-11.16,0c-0.08,1.16-0.18,1.94-0.19,2.72
		C252.19,63.86,252.2,63.86,257.89,63.86z"/>
	<path class="st0" d="M119.35,271.46c18.93,0,37.53,0,56.08,0c0-2.73,0-5.28,0-7.86c-18.94,0-37.67,0-56.74,0
		C118.91,266.18,119.11,268.54,119.35,271.46z"/>
	<path class="st0" d="M131.35,174.51c8.28-0.23,16.56-0.29,24.83-0.41c7.14-0.1,7.14-0.1,7.09-7.32c0-0.09-0.08-0.18-0.25-0.54
		c-11.54,0-23.03,0-34.73,0c0,1.97,0.15,3.67-0.04,5.34C127.97,174.08,129.09,174.57,131.35,174.51z"/>
	<path class="st0" d="M371.76,253.95c6.69-0.17,13.38-0.05,20.08-0.07c1.06,0,2.13-0.1,3.43-0.16c-0.22-2.68-0.41-5.04-0.65-8
		c-8.08,0-15.85-0.06-23.62,0.1c-0.73,0.02-1.65,1.31-2.09,2.2c-0.37,0.74-0.09,1.77-0.22,2.66
		C368.34,253.09,369.17,254.02,371.76,253.95z"/>
	<path class="st0" d="M329.89,246.51c-0.4,7.36-0.4,7.36,6.95,7.36c6.06,0,12.12,0,18.2,0c0-3.04,0-5.7,0-8.23
		c-8.58,0-16.8,0-24.92,0C329.99,246.13,329.9,246.32,329.89,246.51z"/>
	<path class="st0" d="M315.47,253.67c0-2.77,0-5.32,0-8.1c-8.58,0-16.8,0-25.06,0c0,2.83,0,5.45,0,8.1
		C298.88,253.67,307.1,253.67,315.47,253.67z"/>
</g>
<rect x="555.85" y="255.41" width="379.92" height="379.91"/>
</svg>
